<?xml version="1.0" encoding="UTF-8"?>
<svg version="1.1" xmlns="http://www.w3.org/2000/svg" width="1338" height="1600">
<path d="M0 0 C1.26058228 0.74950928 1.26058228 0.74950928 2.54663086 1.51416016 C3.98002808 2.35950317 3.98002808 2.35950317 5.44238281 3.22192383 C6.45518311 3.82625244 7.4679834 4.43058105 8.51147461 5.05322266 C10.67244977 6.32878116 12.8339172 7.603506 14.99584961 8.87744141 C16.07930664 9.5172998 17.16276367 10.1571582 18.27905273 10.81640625 C22.91676709 13.54031334 27.58627913 16.20682077 32.26147461 18.86572266 C39.50577299 22.99284723 46.7335311 27.1468288 53.94555664 31.33007812 C59.56526606 34.58930192 65.19162087 37.83681554 70.82055664 41.08007812 C80.48365917 46.64799451 90.13383044 52.23670063 99.76147461 57.86572266 C108.1019833 62.74135586 116.46994408 67.56543591 124.86376953 72.34863281 C134.53263953 77.8597691 144.15728302 83.4466008 153.78295898 89.03271484 C162.82181315 94.27706256 171.87216121 99.49980026 180.94897461 104.67822266 C188.29576736 108.8696836 195.6276919 113.08549092 202.94433594 117.3293457 C208.56443079 120.5888508 214.19120974 123.83657866 219.82055664 127.08007812 C229.48365917 132.64799451 239.13383044 138.23670063 248.76147461 143.86572266 C257.10708232 148.74433661 265.48022739 153.5712421 273.87915039 158.35742188 C280.25140713 161.989572 286.60488982 165.65286297 292.94995117 169.33227539 C299.63184729 173.20676148 306.32064832 177.06917984 313.01147461 180.92822266 C314.10919189 181.56147461 315.20690918 182.19472656 316.33789062 182.84716797 C321.90656639 186.05935153 327.47604192 189.27013931 333.04663086 192.47900391 C343.48920466 198.49621631 353.92103212 204.53021713 364.32397461 210.61572266 C373.59461391 216.03780964 382.90834159 221.38146277 392.23944092 226.69845581 C401.31676096 231.87201053 410.35468994 237.1096442 419.37084961 242.38916016 C427.03471435 246.86988531 434.73583295 251.2831649 442.44897461 255.67822266 C452.16651016 261.21596804 461.85038706 266.807942 471.50488281 272.45507812 C487.64983139 281.89564342 503.86487256 291.21442517 520.11425781 300.47387695 C526.05697493 303.86636168 531.95819508 307.3238176 537.84423828 310.81347656 C544.8883078 314.97207359 552.02203765 318.97112295 559.16918945 322.94946289 C560.9575578 323.95138389 562.73808011 324.96750347 564.5085572 326.00071106 C566.42412161 327.09354282 568.36932474 328.13643871 570.34354797 329.1193481 C577.81696951 333.15639681 577.81696951 333.15639681 579.47005134 337.13690688 C579.8773717 340.15919961 579.92487705 343.01416256 579.85836697 346.06338024 C579.87705118 347.2092026 579.8957354 348.35502497 579.91498581 349.53556922 C579.95570366 352.71807939 579.94721055 355.89607781 579.91792996 359.0785737 C579.89814311 362.53948413 579.94195685 365.99968862 579.9775992 369.46039134 C580.03120389 375.52616822 580.04374541 381.5909594 580.02939987 387.65694046 C580.00812189 396.67719224 580.04941561 405.6964035 580.10268812 414.71648372 C580.20091688 431.76345103 580.22396608 448.81002348 580.22304147 465.85723581 C580.22259346 479.0215971 580.24051048 492.18581356 580.27139473 505.35013771 C580.28009156 509.1384503 580.28872556 512.92676304 580.29735476 516.71507579 C580.29950798 517.65684425 580.30166121 518.59861271 580.30387968 519.56891961 C580.36382745 546.06252779 580.40011107 572.55608401 580.38866329 599.04976177 C580.38803059 600.54833498 580.38803059 600.54833498 580.3873851 602.07718238 C580.38519175 607.14085843 580.38280693 612.20453438 580.38036554 617.26821031 C580.37988375 618.27388678 580.37940196 619.27956325 580.37890557 620.31571476 C580.3779292 622.34943839 580.37693955 624.38316201 580.37593665 626.41688563 C580.36093417 658.05809644 580.42932987 689.6981868 580.56201172 721.33911133 C580.71096302 756.88206297 580.79266271 792.42429149 580.77811819 827.96757537 C580.77680507 831.7574598 580.77574104 835.54734422 580.77484322 839.33722878 C580.77458017 840.27040392 580.77431713 841.20357907 580.77404611 842.16503225 C580.77151179 856.25403151 580.82204818 870.34220874 580.89979362 884.43097496 C580.98821135 900.45569268 581.00733079 916.4787476 580.93364733 932.50357737 C580.8945063 941.47194281 580.91062029 950.43619176 581.00642074 959.40415294 C581.06490234 965.39733816 581.0504757 971.38751183 580.97717671 977.38052614 C580.93744651 980.79582437 580.92884844 984.20314824 581.00910484 987.61791428 C581.38210281 1007.35428481 581.38210281 1007.35428481 576.47142656 1012.91925897 C571.69346816 1016.79050457 566.46896019 1019.37654944 560.80057711 1021.69275639 C557.70232307 1022.99111563 554.93578936 1024.60768922 552.06225586 1026.34228516 C550.29667853 1027.33167684 548.52978364 1028.31872159 546.76147461 1029.30322266 C540.18376743 1032.99429434 533.62623565 1036.70942259 527.13647461 1040.55322266 C516.75755616 1046.69943313 506.29685241 1052.7033494 495.84399414 1058.72265625 C490.37727481 1061.87154319 484.91322574 1065.02505529 479.44897461 1068.17822266 C477.2823215 1069.42824616 475.11565482 1070.67824612 472.94897461 1071.92822266 C471.87647461 1072.54697266 470.80397461 1073.16572266 469.69897461 1073.80322266 C459.94897462 1079.42822265 459.94897462 1079.42822265 456.69848633 1081.3034668 C454.5334039 1082.55257784 452.36836479 1083.80176395 450.20336914 1085.05102539 C444.76281755 1088.19024575 439.32150245 1091.32812828 433.87866211 1094.46337891 C423.42691261 1100.48569594 412.98597913 1106.52491603 402.57397461 1112.61572266 C393.3033353 1118.03780964 383.98960762 1123.38146277 374.6585083 1128.69845581 C366.56189618 1133.31306294 358.4910866 1137.96907152 350.44897461 1142.67822266 C341.22330563 1148.0804192 331.95375145 1153.40210334 322.66500854 1158.69470215 C313.42138384 1163.9629989 304.21727775 1169.29595467 295.03491211 1174.67041016 C287.83895845 1178.87845782 280.60984895 1183.02493339 273.36547852 1187.14892578 C266.84688141 1190.86544424 260.36237158 1194.63786826 253.88647461 1198.42822266 C245.10512151 1203.56685581 236.28891334 1208.64134633 227.44897461 1213.67822266 C218.75495213 1218.63199881 210.08394789 1223.62191477 201.44897461 1228.67822266 C192.22564195 1234.07905114 182.95847517 1239.39946075 173.67205811 1244.69067383 C164.26193607 1250.05379781 154.89147532 1255.4821591 145.54272461 1260.95166016 C139.45203208 1264.51414069 133.34040801 1268.03393764 127.20678711 1271.52197266 C122.22380368 1274.36939176 117.27760111 1277.28016367 112.32397461 1280.17822266 C103.43608748 1285.37487716 94.51755608 1290.5156638 85.57397461 1295.61572266 C69.17763073 1304.96708437 52.80754724 1314.36363293 36.51586914 1323.89648438 C33.58525279 1325.60913171 30.65003636 1327.31369756 27.71459961 1329.01806641 C23.74659822 1331.32505883 19.79882857 1333.66223688 15.8644104 1336.02577209 C13.31553164 1337.55209034 10.7569015 1339.06154635 8.19647217 1340.56838989 C6.95791937 1341.30248242 5.72363368 1342.04382734 4.49395752 1342.79269409 C2.77928225 1343.83577011 1.04798093 1344.85136451 -0.68383789 1345.86572266 C-1.67270996 1346.45740234 -2.66158203 1347.04908203 -3.68041992 1347.65869141 C-7.43993049 1348.99392836 -8.97241625 1348.31850484 -12.55102539 1346.67822266 C-14.27750665 1345.78367107 -15.97732545 1344.83602987 -17.64868164 1343.84228516 C-18.60427979 1343.27872314 -19.55987793 1342.71516113 -20.54443359 1342.13452148 C-21.55723389 1341.53019287 -22.57003418 1340.92586426 -23.61352539 1340.30322266 C-25.77450055 1339.02766415 -27.93596799 1337.75293931 -30.09790039 1336.47900391 C-31.18135742 1335.83914551 -32.26481445 1335.19928711 -33.38110352 1334.54003906 C-38.01881787 1331.81613197 -42.68832991 1329.14962455 -47.36352539 1326.49072266 C-54.60782377 1322.36359808 -61.83558188 1318.20961651 -69.04760742 1314.02636719 C-74.66788442 1310.76681422 -80.29480604 1307.51897022 -85.92431641 1304.27539062 C-96.7538436 1298.03534925 -107.56338778 1291.7625419 -118.35449219 1285.45629883 C-124.48045826 1281.87869382 -130.62649034 1278.34133175 -136.79321289 1274.83447266 C-141.77619632 1271.98705355 -146.72239889 1269.07628165 -151.67602539 1266.17822266 C-160.56391252 1260.98156815 -169.48244392 1255.84078151 -178.42602539 1250.74072266 C-196.79769555 1240.2627689 -215.11575609 1229.69497197 -233.37231445 1219.01757812 C-241.66218807 1214.17797433 -249.99435806 1209.41426307 -258.33444214 1204.66201782 C-267.57967721 1199.39282545 -276.78502672 1194.05836172 -285.96948242 1188.68383789 C-293.11767854 1184.50442501 -300.29517985 1180.37942255 -307.48950195 1176.2800293 C-317.75362377 1170.42924895 -327.98110819 1164.51515578 -338.21166992 1158.60595703 C-341.52035434 1156.69592836 -344.83037578 1154.78823906 -348.14086914 1152.88134766 C-358.58632401 1146.86330673 -369.02057186 1140.82769709 -379.42602539 1134.74072266 C-388.6966647 1129.31863567 -398.01039238 1123.97498254 -407.3414917 1118.6579895 C-416.41881175 1113.48443479 -425.45674072 1108.24680111 -434.47290039 1102.96728516 C-442.13676513 1098.48656 -449.83788374 1094.07328041 -457.55102539 1089.67822266 C-467.26856094 1084.14047727 -476.95243784 1078.54850331 -486.60693359 1072.90136719 C-502.75188217 1063.46080189 -518.96692334 1054.14202014 -535.21630859 1044.88256836 C-541.15902571 1041.49008364 -547.06024586 1038.03262772 -552.94628906 1034.54296875 C-559.99035858 1030.38437172 -567.12408844 1026.38532237 -574.27124023 1022.40698242 C-576.05960858 1021.40506142 -577.84013089 1020.38894184 -579.61060798 1019.35573425 C-581.52617239 1018.2629025 -583.47137552 1017.2200066 -585.44559876 1016.23709721 C-592.91902029 1012.2000485 -592.91902029 1012.2000485 -594.57210212 1008.21953843 C-594.97942248 1005.19724571 -595.02692783 1002.34228275 -594.96041775 999.29306507 C-594.97910196 998.14724271 -594.99778618 997.00142034 -595.01703659 995.82087609 C-595.05775444 992.63836592 -595.04926133 989.4603675 -595.01998074 986.27787162 C-595.0001939 982.81696118 -595.04400764 979.35675669 -595.07964998 975.89605397 C-595.13325468 969.83027709 -595.14579619 963.76548592 -595.13145065 957.69950485 C-595.11017267 948.67925307 -595.15146639 939.66004181 -595.2047389 930.63996159 C-595.30296766 913.59299428 -595.32601686 896.54642183 -595.32509225 879.4992095 C-595.32464424 866.33484821 -595.34256126 853.17063175 -595.37344551 840.0063076 C-595.38214234 836.21799501 -595.39077634 832.42968227 -595.39940554 828.64136952 C-595.40155876 827.69960106 -595.40371199 826.7578326 -595.40593046 825.7875257 C-595.46587823 799.29391752 -595.50216185 772.8003613 -595.49071407 746.30668354 C-595.49029227 745.30763474 -595.48987047 744.30858594 -595.48943588 743.27926293 C-595.48724254 738.21558688 -595.48485771 733.15191093 -595.48241632 728.088235 C-595.48193453 727.08255853 -595.48145274 726.07688206 -595.48095635 725.04073055 C-595.47997998 723.00700692 -595.47899033 720.9732833 -595.47798744 718.93955968 C-595.46298496 687.29834887 -595.53138065 655.65825851 -595.6640625 624.01733398 C-595.8130138 588.47438235 -595.89471349 552.93215382 -595.88016897 517.38886994 C-595.87885585 513.59898551 -595.87779182 509.80910109 -595.876894 506.01921654 C-595.87663095 505.08604139 -595.87636791 504.15286624 -595.87609689 503.19141306 C-595.87356257 489.1024138 -595.92409896 475.01423657 -596.00184441 460.92547035 C-596.09026213 444.90075263 -596.10938157 428.87769771 -596.03569811 412.85286794 C-595.99655709 403.8845025 -596.01267107 394.92025355 -596.10847152 385.95229237 C-596.16695312 379.95910715 -596.15252648 373.96893348 -596.07922749 367.97591918 C-596.03949729 364.56062094 -596.03089922 361.15329708 -596.11115562 357.73853103 C-596.48415359 338.0021605 -596.48415359 338.0021605 -591.57347734 332.43718635 C-586.79551894 328.56594075 -581.57101097 325.97989587 -575.90262789 323.66368892 C-572.80437385 322.36532968 -570.03784014 320.74875609 -567.16430664 319.01416016 C-565.39872931 318.02476848 -563.63183443 317.03772372 -561.86352539 316.05322266 C-555.28581821 312.36215098 -548.72828643 308.64702272 -542.23852539 304.80322266 C-531.85960694 298.65701218 -521.3989032 292.65309592 -510.94604492 286.63378906 C-505.47932559 283.48490212 -500.01527652 280.33139002 -494.55102539 277.17822266 C-492.38437228 275.92819916 -490.2177056 274.67819919 -488.05102539 273.42822266 C-486.97852539 272.80947266 -485.90602539 272.19072266 -484.80102539 271.55322266 C-475.05102539 265.92822265 -475.05102539 265.92822265 -471.80053711 264.05297852 C-469.63545468 262.80386748 -467.47041557 261.55468136 -465.30541992 260.30541992 C-459.86486833 257.16619956 -454.42355323 254.02831703 -448.98071289 250.89306641 C-438.5289634 244.87074937 -428.08802991 238.83152928 -417.67602539 232.74072266 C-408.40538609 227.31863567 -399.09165841 221.97498254 -389.76055908 216.6579895 C-381.6639461 212.04338188 -373.5931879 207.38728841 -365.55102539 202.67822266 C-356.95585073 197.64632372 -348.32782323 192.67447344 -339.67602539 187.74072266 C-322.29284817 177.82649695 -304.95034399 167.84365112 -287.67602539 157.74072266 C-278.40766568 152.32009929 -269.09638279 146.97762641 -259.76760864 141.66201782 C-251.52273142 136.96296541 -243.30432377 132.22111484 -235.11352539 127.42822266 C-224.30213382 121.10224771 -213.43724514 114.87433192 -202.55102539 108.67822266 C-191.99061262 102.66682185 -181.44368318 96.640088 -170.98339844 90.45581055 C-165.55403131 87.25241426 -160.09032607 84.1122366 -154.61352539 80.99072266 C-137.10073571 71.00886991 -119.65275261 60.91668636 -102.25024414 50.74389648 C-94.89859555 46.45158047 -87.51714054 42.21384694 -80.12084961 37.99902344 C-73.75372373 34.36979787 -67.40522717 30.70967782 -61.06542969 27.03295898 C-56.4632179 24.36417871 -51.85841538 21.69998429 -47.25024414 19.04150391 C-46.15188232 18.40760742 -45.05352051 17.77371094 -43.921875 17.12060547 C-41.68591461 15.83217925 -39.44845932 14.54634363 -37.20947266 13.26318359 C-32.05831824 10.30659707 -26.93533781 7.32223473 -21.87915039 4.20556641 C-20.58364258 3.41859375 -20.58364258 3.41859375 -19.26196289 2.61572266 C-17.6682285 1.6443036 -16.08407102 0.6569208 -14.51196289 -0.34912109 C-13.80813477 -0.77451172 -13.10430664 -1.19990234 -12.37915039 -1.63818359 C-11.78005859 -2.01402588 -11.1809668 -2.38986816 -10.5637207 -2.77709961 C-6.70235213 -3.82206726 -3.39681168 -1.76000942 0 0 Z " fill="#FDFDFD" transform="translate(676.551025390625,127.32177734375)"/>
<path d="M0 0 C1.26058228 0.74950928 1.26058228 0.74950928 2.54663086 1.51416016 C3.98002808 2.35950317 3.98002808 2.35950317 5.44238281 3.22192383 C6.45518311 3.82625244 7.4679834 4.43058105 8.51147461 5.05322266 C10.67244977 6.32878116 12.8339172 7.603506 14.99584961 8.87744141 C16.07930664 9.5172998 17.16276367 10.1571582 18.27905273 10.81640625 C22.91676709 13.54031334 27.58627913 16.20682077 32.26147461 18.86572266 C39.50577299 22.99284723 46.7335311 27.1468288 53.94555664 31.33007812 C59.56526606 34.58930192 65.19162087 37.83681554 70.82055664 41.08007812 C80.48365917 46.64799451 90.13383044 52.23670063 99.76147461 57.86572266 C108.1019833 62.74135586 116.46994408 67.56543591 124.86376953 72.34863281 C134.53263953 77.8597691 144.15728302 83.4466008 153.78295898 89.03271484 C162.82181315 94.27706256 171.87216121 99.49980026 180.94897461 104.67822266 C188.29576736 108.8696836 195.6276919 113.08549092 202.94433594 117.3293457 C208.56443079 120.5888508 214.19120974 123.83657866 219.82055664 127.08007812 C229.48365917 132.64799451 239.13383044 138.23670063 248.76147461 143.86572266 C257.10708232 148.74433661 265.48022739 153.5712421 273.87915039 158.35742188 C280.25140713 161.989572 286.60488982 165.65286297 292.94995117 169.33227539 C299.63184729 173.20676148 306.32064832 177.06917984 313.01147461 180.92822266 C314.10919189 181.56147461 315.20690918 182.19472656 316.33789062 182.84716797 C321.90656639 186.05935153 327.47604192 189.27013931 333.04663086 192.47900391 C343.48920466 198.49621631 353.92103212 204.53021713 364.32397461 210.61572266 C373.59461391 216.03780964 382.90834159 221.38146277 392.23944092 226.69845581 C401.31676096 231.87201053 410.35468994 237.1096442 419.37084961 242.38916016 C427.03471435 246.86988531 434.73583295 251.2831649 442.44897461 255.67822266 C452.16651016 261.21596804 461.85038706 266.807942 471.50488281 272.45507812 C487.64983139 281.89564342 503.86487256 291.21442517 520.11425781 300.47387695 C526.05697493 303.86636168 531.95819508 307.3238176 537.84423828 310.81347656 C544.8883078 314.97207359 552.02203765 318.97112295 559.16918945 322.94946289 C560.9575578 323.95138389 562.73808011 324.96750347 564.5085572 326.00071106 C566.42412161 327.09354282 568.36932474 328.13643871 570.34354797 329.1193481 C577.81696951 333.15639681 577.81696951 333.15639681 579.47005134 337.13690688 C579.8773717 340.15919961 579.92487705 343.01416256 579.85836697 346.06338024 C579.87705118 347.2092026 579.8957354 348.35502497 579.91498581 349.53556922 C579.95570366 352.71807939 579.94721055 355.89607781 579.91792996 359.0785737 C579.89814311 362.53948413 579.94195685 365.99968862 579.9775992 369.46039134 C580.03120389 375.52616822 580.04374541 381.5909594 580.02939987 387.65694046 C580.00812189 396.67719224 580.04941561 405.6964035 580.10268812 414.71648372 C580.20091688 431.76345103 580.22396608 448.81002348 580.22304147 465.85723581 C580.22259346 479.0215971 580.24051048 492.18581356 580.27139473 505.35013771 C580.28009156 509.1384503 580.28872556 512.92676304 580.29735476 516.71507579 C580.29950798 517.65684425 580.30166121 518.59861271 580.30387968 519.56891961 C580.36382745 546.06252779 580.40011107 572.55608401 580.38866329 599.04976177 C580.38803059 600.54833498 580.38803059 600.54833498 580.3873851 602.07718238 C580.38519175 607.14085843 580.38280693 612.20453438 580.38036554 617.26821031 C580.37988375 618.27388678 580.37940196 619.27956325 580.37890557 620.31571476 C580.3779292 622.34943839 580.37693955 624.38316201 580.37593665 626.41688563 C580.36093417 658.05809644 580.42932987 689.6981868 580.56201172 721.33911133 C580.71096302 756.88206297 580.79266271 792.42429149 580.77811819 827.96757537 C580.77680507 831.7574598 580.77574104 835.54734422 580.77484322 839.33722878 C580.77458017 840.27040392 580.77431713 841.20357907 580.77404611 842.16503225 C580.77151179 856.25403151 580.82204818 870.34220874 580.89979362 884.43097496 C580.98821135 900.45569268 581.00733079 916.4787476 580.93364733 932.50357737 C580.8945063 941.47194281 580.91062029 950.43619176 581.00642074 959.40415294 C581.06490234 965.39733816 581.0504757 971.38751183 580.97717671 977.38052614 C580.93744651 980.79582437 580.92884844 984.20314824 581.00910484 987.61791428 C581.38210281 1007.35428481 581.38210281 1007.35428481 576.47142656 1012.91925897 C571.69346816 1016.79050457 566.46896019 1019.37654944 560.80057711 1021.69275639 C557.70232307 1022.99111563 554.93578936 1024.60768922 552.06225586 1026.34228516 C550.29667853 1027.33167684 548.52978364 1028.31872159 546.76147461 1029.30322266 C540.18376743 1032.99429434 533.62623565 1036.70942259 527.13647461 1040.55322266 C516.75755616 1046.69943313 506.29685241 1052.7033494 495.84399414 1058.72265625 C490.37727481 1061.87154319 484.91322574 1065.02505529 479.44897461 1068.17822266 C477.2823215 1069.42824616 475.11565482 1070.67824612 472.94897461 1071.92822266 C471.87647461 1072.54697266 470.80397461 1073.16572266 469.69897461 1073.80322266 C459.94897462 1079.42822265 459.94897462 1079.42822265 456.69848633 1081.3034668 C454.5334039 1082.55257784 452.36836479 1083.80176395 450.20336914 1085.05102539 C444.76281755 1088.19024575 439.32150245 1091.32812828 433.87866211 1094.46337891 C423.42691261 1100.48569594 412.98597913 1106.52491603 402.57397461 1112.61572266 C393.3033353 1118.03780964 383.98960762 1123.38146277 374.6585083 1128.69845581 C366.56189618 1133.31306294 358.4910866 1137.96907152 350.44897461 1142.67822266 C341.22330563 1148.0804192 331.95375145 1153.40210334 322.66500854 1158.69470215 C313.42138384 1163.9629989 304.21727775 1169.29595467 295.03491211 1174.67041016 C287.83895845 1178.87845782 280.60984895 1183.02493339 273.36547852 1187.14892578 C266.84688141 1190.86544424 260.36237158 1194.63786826 253.88647461 1198.42822266 C245.10512151 1203.56685581 236.28891334 1208.64134633 227.44897461 1213.67822266 C218.75495213 1218.63199881 210.08394789 1223.62191477 201.44897461 1228.67822266 C192.22564195 1234.07905114 182.95847517 1239.39946075 173.67205811 1244.69067383 C164.26193607 1250.05379781 154.89147532 1255.4821591 145.54272461 1260.95166016 C139.45203208 1264.51414069 133.34040801 1268.03393764 127.20678711 1271.52197266 C122.22380368 1274.36939176 117.27760111 1277.28016367 112.32397461 1280.17822266 C103.43608748 1285.37487716 94.51755608 1290.5156638 85.57397461 1295.61572266 C69.17763073 1304.96708437 52.80754724 1314.36363293 36.51586914 1323.89648438 C33.58525279 1325.60913171 30.65003636 1327.31369756 27.71459961 1329.01806641 C23.74659822 1331.32505883 19.79882857 1333.66223688 15.8644104 1336.02577209 C13.31553164 1337.55209034 10.7569015 1339.06154635 8.19647217 1340.56838989 C6.95791937 1341.30248242 5.72363368 1342.04382734 4.49395752 1342.79269409 C2.77928225 1343.83577011 1.04798093 1344.85136451 -0.68383789 1345.86572266 C-1.67270996 1346.45740234 -2.66158203 1347.04908203 -3.68041992 1347.65869141 C-7.43993049 1348.99392836 -8.97241625 1348.31850484 -12.55102539 1346.67822266 C-14.27750665 1345.78367107 -15.97732545 1344.83602987 -17.64868164 1343.84228516 C-18.60427979 1343.27872314 -19.55987793 1342.71516113 -20.54443359 1342.13452148 C-21.55723389 1341.53019287 -22.57003418 1340.92586426 -23.61352539 1340.30322266 C-25.77450055 1339.02766415 -27.93596799 1337.75293931 -30.09790039 1336.47900391 C-31.18135742 1335.83914551 -32.26481445 1335.19928711 -33.38110352 1334.54003906 C-38.01881787 1331.81613197 -42.68832991 1329.14962455 -47.36352539 1326.49072266 C-54.60782377 1322.36359808 -61.83558188 1318.20961651 -69.04760742 1314.02636719 C-74.66788442 1310.76681422 -80.29480604 1307.51897022 -85.92431641 1304.27539062 C-96.7538436 1298.03534925 -107.56338778 1291.7625419 -118.35449219 1285.45629883 C-124.48045826 1281.87869382 -130.62649034 1278.34133175 -136.79321289 1274.83447266 C-141.77619632 1271.98705355 -146.72239889 1269.07628165 -151.67602539 1266.17822266 C-160.56391252 1260.98156815 -169.48244392 1255.84078151 -178.42602539 1250.74072266 C-196.79769555 1240.2627689 -215.11575609 1229.69497197 -233.37231445 1219.01757812 C-241.66218807 1214.17797433 -249.99435806 1209.41426307 -258.33444214 1204.66201782 C-267.57967721 1199.39282545 -276.78502672 1194.05836172 -285.96948242 1188.68383789 C-293.11767854 1184.50442501 -300.29517985 1180.37942255 -307.48950195 1176.2800293 C-317.75362377 1170.42924895 -327.98110819 1164.51515578 -338.21166992 1158.60595703 C-341.52035434 1156.69592836 -344.83037578 1154.78823906 -348.14086914 1152.88134766 C-358.58632401 1146.86330673 -369.02057186 1140.82769709 -379.42602539 1134.74072266 C-388.6966647 1129.31863567 -398.01039238 1123.97498254 -407.3414917 1118.6579895 C-416.41881175 1113.48443479 -425.45674072 1108.24680111 -434.47290039 1102.96728516 C-442.13676513 1098.48656 -449.83788374 1094.07328041 -457.55102539 1089.67822266 C-467.26856094 1084.14047727 -476.95243784 1078.54850331 -486.60693359 1072.90136719 C-502.75188217 1063.46080189 -518.96692334 1054.14202014 -535.21630859 1044.88256836 C-541.15902571 1041.49008364 -547.06024586 1038.03262772 -552.94628906 1034.54296875 C-559.99035858 1030.38437172 -567.12408844 1026.38532237 -574.27124023 1022.40698242 C-576.05960858 1021.40506142 -577.84013089 1020.38894184 -579.61060798 1019.35573425 C-581.52617239 1018.2629025 -583.47137552 1017.2200066 -585.44559876 1016.23709721 C-592.91902029 1012.2000485 -592.91902029 1012.2000485 -594.57210212 1008.21953843 C-594.97942248 1005.19724571 -595.02692783 1002.34228275 -594.96041775 999.29306507 C-594.97910196 998.14724271 -594.99778618 997.00142034 -595.01703659 995.82087609 C-595.05775444 992.63836592 -595.04926133 989.4603675 -595.01998074 986.27787162 C-595.0001939 982.81696118 -595.04400764 979.35675669 -595.07964998 975.89605397 C-595.13325468 969.83027709 -595.14579619 963.76548592 -595.13145065 957.69950485 C-595.11017267 948.67925307 -595.15146639 939.66004181 -595.2047389 930.63996159 C-595.30296766 913.59299428 -595.32601686 896.54642183 -595.32509225 879.4992095 C-595.32464424 866.33484821 -595.34256126 853.17063175 -595.37344551 840.0063076 C-595.38214234 836.21799501 -595.39077634 832.42968227 -595.39940554 828.64136952 C-595.40155876 827.69960106 -595.40371199 826.7578326 -595.40593046 825.7875257 C-595.46587823 799.29391752 -595.50216185 772.8003613 -595.49071407 746.30668354 C-595.49029227 745.30763474 -595.48987047 744.30858594 -595.48943588 743.27926293 C-595.48724254 738.21558688 -595.48485771 733.15191093 -595.48241632 728.088235 C-595.48193453 727.08255853 -595.48145274 726.07688206 -595.48095635 725.04073055 C-595.47997998 723.00700692 -595.47899033 720.9732833 -595.47798744 718.93955968 C-595.46298496 687.29834887 -595.53138065 655.65825851 -595.6640625 624.01733398 C-595.8130138 588.47438235 -595.89471349 552.93215382 -595.88016897 517.38886994 C-595.87885585 513.59898551 -595.87779182 509.80910109 -595.876894 506.01921654 C-595.87663095 505.08604139 -595.87636791 504.15286624 -595.87609689 503.19141306 C-595.87356257 489.1024138 -595.92409896 475.01423657 -596.00184441 460.92547035 C-596.09026213 444.90075263 -596.10938157 428.87769771 -596.03569811 412.85286794 C-595.99655709 403.8845025 -596.01267107 394.92025355 -596.10847152 385.95229237 C-596.16695312 379.95910715 -596.15252648 373.96893348 -596.07922749 367.97591918 C-596.03949729 364.56062094 -596.03089922 361.15329708 -596.11115562 357.73853103 C-596.48415359 338.0021605 -596.48415359 338.0021605 -591.57347734 332.43718635 C-586.79551894 328.56594075 -581.57101097 325.97989587 -575.90262789 323.66368892 C-572.80437385 322.36532968 -570.03784014 320.74875609 -567.16430664 319.01416016 C-565.39872931 318.02476848 -563.63183443 317.03772372 -561.86352539 316.05322266 C-555.28581821 312.36215098 -548.72828643 308.64702272 -542.23852539 304.80322266 C-531.85960694 298.65701218 -521.3989032 292.65309592 -510.94604492 286.63378906 C-505.47932559 283.48490212 -500.01527652 280.33139002 -494.55102539 277.17822266 C-492.38437228 275.92819916 -490.2177056 274.67819919 -488.05102539 273.42822266 C-486.97852539 272.80947266 -485.90602539 272.19072266 -484.80102539 271.55322266 C-475.05102539 265.92822265 -475.05102539 265.92822265 -471.80053711 264.05297852 C-469.63545468 262.80386748 -467.47041557 261.55468136 -465.30541992 260.30541992 C-459.86486833 257.16619956 -454.42355323 254.02831703 -448.98071289 250.89306641 C-438.5289634 244.87074937 -428.08802991 238.83152928 -417.67602539 232.74072266 C-408.40538609 227.31863567 -399.09165841 221.97498254 -389.76055908 216.6579895 C-381.6639461 212.04338188 -373.5931879 207.38728841 -365.55102539 202.67822266 C-356.95585073 197.64632372 -348.32782323 192.67447344 -339.67602539 187.74072266 C-322.29284817 177.82649695 -304.95034399 167.84365112 -287.67602539 157.74072266 C-278.40766568 152.32009929 -269.09638279 146.97762641 -259.76760864 141.66201782 C-251.52273142 136.96296541 -243.30432377 132.22111484 -235.11352539 127.42822266 C-224.30213382 121.10224771 -213.43724514 114.87433192 -202.55102539 108.67822266 C-191.99061262 102.66682185 -181.44368318 96.640088 -170.98339844 90.45581055 C-165.55403131 87.25241426 -160.09032607 84.1122366 -154.61352539 80.99072266 C-137.10073571 71.00886991 -119.65275261 60.91668636 -102.25024414 50.74389648 C-94.89859555 46.45158047 -87.51714054 42.21384694 -80.12084961 37.99902344 C-73.75372373 34.36979787 -67.40522717 30.70967782 -61.06542969 27.03295898 C-56.4632179 24.36417871 -51.85841538 21.69998429 -47.25024414 19.04150391 C-46.15188232 18.40760742 -45.05352051 17.77371094 -43.921875 17.12060547 C-41.68591461 15.83217925 -39.44845932 14.54634363 -37.20947266 13.26318359 C-32.05831824 10.30659707 -26.93533781 7.32223473 -21.87915039 4.20556641 C-20.58364258 3.41859375 -20.58364258 3.41859375 -19.26196289 2.61572266 C-17.6682285 1.6443036 -16.08407102 0.6569208 -14.51196289 -0.34912109 C-13.80813477 -0.77451172 -13.10430664 -1.19990234 -12.37915039 -1.63818359 C-11.78005859 -2.01402588 -11.1809668 -2.38986816 -10.5637207 -2.77709961 C-6.70235213 -3.82206726 -3.39681168 -1.76000942 0 0 Z M-14.20727539 66.17822266 C-15.5955957 67.00193359 -15.5955957 67.00193359 -17.01196289 67.84228516 C-18.01485352 68.44814453 -19.01774414 69.05400391 -20.05102539 69.67822266 C-22.22731508 70.97122606 -24.4044321 72.26283775 -26.58227539 73.55322266 C-27.43245239 74.05885742 -27.43245239 74.05885742 -28.29980469 74.57470703 C-34.08811397 78.01275965 -39.9332554 81.3483169 -45.78610229 84.67492676 C-56.2204306 90.60647064 -66.61027935 96.61064953 -76.96948242 102.67260742 C-84.1162687 106.851196 -91.29257791 110.9749847 -98.48510742 115.07421875 C-113.84942035 123.8336365 -129.15996702 132.68625478 -144.42602539 141.61572266 C-153.69604881 147.03739127 -163.00934243 152.38027153 -172.33947754 157.69744873 C-181.46385379 162.89867394 -190.55235313 168.15850143 -199.61791992 173.46166992 C-210.14187164 179.61589007 -220.70482677 185.70192262 -231.26879883 191.78710938 C-236.69762481 194.91502414 -242.1242182 198.04680713 -247.55102539 201.17822266 C-249.71768122 202.42824145 -251.88434789 203.67824144 -254.05102539 204.92822266 C-255.12352539 205.54697266 -256.19602539 206.16572266 -257.30102539 206.80322266 C-423.05102539 302.42822266 -423.05102539 302.42822266 -426.30151367 304.3034668 C-428.4665961 305.55257784 -430.63163521 306.80176395 -432.79663086 308.05102539 C-438.23718245 311.19024575 -443.67849755 314.32812828 -449.12133789 317.46337891 C-460.55227521 324.04990574 -471.96502202 330.66548856 -483.35205078 337.32763672 C-488.80291846 340.5105597 -494.26729453 343.66817903 -499.75024414 346.79541016 C-500.36337463 347.14513382 -500.97650513 347.49485748 -501.60821533 347.85517883 C-504.56967514 349.54333952 -507.53276337 351.22852876 -510.49780273 352.91040039 C-512.64540964 354.13196478 -514.7796638 355.37742305 -516.89724916 356.65032023 C-519.35082483 358.08035307 -521.76447389 359.18225574 -524.42198044 360.17765075 C-528.7693045 361.9750372 -532.5700195 363.950344 -535.55102539 367.67822266 C-538.46276523 375.20288904 -537.61339519 383.90328256 -537.51634216 391.82426453 C-537.54007255 394.33825015 -537.57031012 396.85218136 -537.60649353 399.36601859 C-537.66992067 404.83212074 -537.68668347 410.2952976 -537.66210556 415.76165771 C-537.62565587 423.88971736 -537.67477684 432.01570722 -537.74022704 440.14350383 C-537.86066256 455.50480328 -537.87935048 470.86521033 -537.86626004 486.22689833 C-537.85664097 498.09071756 -537.87337862 509.95423432 -537.90870857 521.8180027 C-537.9136668 523.52275906 -537.91861324 525.22751545 -537.92354797 526.93227187 C-537.9309995 529.5012307 -537.93845387 532.07018952 -537.94595846 534.6391482 C-538.01499669 558.5242402 -538.05285202 582.40921996 -538.0264883 606.29440594 C-538.02550331 607.19480349 -538.02451832 608.09520105 -538.02350348 609.02288338 C-538.01841951 613.5863898 -538.01304776 618.14989585 -538.00756954 622.71340182 C-538.00648318 623.61971719 -538.00539682 624.52603257 -538.00427754 625.45981204 C-538.00207629 627.29260258 -537.99985972 629.12539309 -537.99762784 630.95818359 C-537.96365179 659.47167293 -538.03372669 687.98325132 -538.18554688 716.49633789 C-538.35598419 748.53676998 -538.44609733 780.57600101 -538.41920429 812.61691409 C-538.41660837 816.03439719 -538.41429296 819.45188037 -538.41215706 822.86936378 C-538.41157771 823.71082315 -538.41099835 824.55228252 -538.41040144 825.41924066 C-538.40332294 838.11455191 -538.45912125 850.80859692 -538.54702568 863.50357628 C-538.64696309 877.94605282 -538.66305774 892.38582753 -538.56775641 906.82839479 C-538.51692997 914.90849911 -538.53204107 922.98206152 -538.64311451 931.0615975 C-538.71868469 937.10182411 -538.66824193 943.1341926 -538.56940807 949.17436562 C-538.54888576 951.61242533 -538.5687038 954.05123643 -538.63340347 956.48852392 C-538.96997013 967.45036587 -538.96997013 967.45036587 -535.55102539 977.67822266 C-529.53770453 983.57902703 -521.96085624 987.07427613 -514.32881821 990.43151579 C-510.85649674 991.98993548 -507.68349125 993.82333089 -504.43383789 995.79931641 C-502.51491887 996.90539573 -500.59565667 998.01087993 -498.67602539 999.11572266 C-496.49112001 1000.37482067 -494.30622447 1001.63393576 -492.12133789 1002.89306641 C-491.03626953 1003.51810059 -489.95120117 1004.14313477 -488.83325195 1004.78710938 C-483.40442597 1007.91502414 -477.97783258 1011.04680713 -472.55102539 1014.17822266 C-470.38436956 1015.42824145 -468.21770289 1016.67824144 -466.05102539 1017.92822266 C-461.71769206 1020.42822266 -457.38435872 1022.92822266 -453.05102539 1025.42822266 C-451.97836426 1026.04705322 -450.90570313 1026.66588379 -449.80053711 1027.3034668 C-447.63545468 1028.55257784 -445.47041557 1029.80176395 -443.30541992 1031.05102539 C-437.86486833 1034.19024575 -432.42355323 1037.32812828 -426.98071289 1040.46337891 C-416.5289634 1046.48569594 -406.08802991 1052.52491603 -395.67602539 1058.61572266 C-386.40538609 1064.03780964 -377.09165841 1069.38146277 -367.76055908 1074.69845581 C-358.68323904 1079.87201053 -349.64531006 1085.1096442 -340.62915039 1090.38916016 C-332.96528565 1094.86988531 -325.26416705 1099.2831649 -317.55102539 1103.67822266 C-307.82835726 1109.21889295 -298.13962542 1114.81425688 -288.47973633 1120.46386719 C-271.59768464 1130.33453419 -254.63597588 1140.06592639 -237.64886475 1149.75430298 C-228.56306661 1154.93807391 -219.51281498 1160.18016286 -210.48364258 1165.46191406 C-199.9599122 1171.61615255 -189.39706619 1177.70201353 -178.83325195 1183.78710938 C-173.40442594 1186.91502416 -167.97785291 1190.04684231 -162.55102539 1193.17822266 C-160.39087182 1194.42432105 -158.23071556 1195.67041479 -156.07055664 1196.91650391 C-151.67143464 1199.45438259 -147.27308218 1201.99358848 -142.87524414 1204.53369141 C-132.94493299 1210.26809644 -123.01133824 1215.99605572 -113.05102539 1221.67822266 C-95.72696113 1231.56314954 -78.46182676 1241.54879588 -61.24365234 1251.61694336 C-53.98403674 1255.85656847 -46.69584811 1260.04344435 -39.37792969 1264.18164062 C-34.71285466 1266.83019359 -30.10139919 1269.54646389 -25.52758789 1272.35009766 C-24.52937012 1272.95716553 -23.53115234 1273.5642334 -22.50268555 1274.18969727 C-20.57547869 1275.3656282 -18.65547064 1276.55346253 -16.74389648 1277.75463867 C-15.44186279 1278.54632446 -15.44186279 1278.54632446 -14.11352539 1279.35400391 C-12.97077148 1280.06423706 -12.97077148 1280.06423706 -11.80493164 1280.78881836 C-8.89518634 1281.9370205 -7.51050463 1281.62641916 -4.55102539 1280.67822266 C-2.01202411 1279.51144373 -2.01202411 1279.51144373 0.56225586 1278.01025391 C1.5502417 1277.454104 2.53822754 1276.8979541 3.55615234 1276.32495117 C4.61390869 1275.71965576 5.67166504 1275.11436035 6.76147461 1274.49072266 C7.87014893 1273.86286865 8.97882324 1273.23501465 10.12109375 1272.58813477 C19.57863119 1267.21628567 28.97599112 1261.74126287 38.35913086 1256.24072266 C44.6646788 1252.54608955 50.99191897 1248.88969584 57.32397461 1245.24072266 C58.40412842 1244.61818604 59.48428223 1243.99564941 60.59716797 1243.35424805 C62.78693795 1242.09245439 64.97679816 1240.83081732 67.16674805 1239.56933594 C72.59557403 1236.44142117 78.02216742 1233.30963818 83.44897461 1230.17822266 C85.61563044 1228.92820387 87.78229711 1227.67820387 89.94897461 1226.42822266 C91.02147461 1225.80947266 92.09397461 1225.19072266 93.19897461 1224.55322266 C310.94897462 1098.92822265 310.94897462 1098.92822265 314.19946289 1097.05297852 C316.36454532 1095.80386748 318.52958443 1094.55468136 320.69458008 1093.30541992 C326.13513167 1090.16619956 331.57644677 1087.02831703 337.01928711 1083.89306641 C347.4710366 1077.87074937 357.91197009 1071.83152928 368.32397461 1065.74072266 C377.59461391 1060.31863567 386.90834159 1054.97498254 396.23944092 1049.6579895 C404.33605304 1045.04338237 412.40686262 1040.38737379 420.44897461 1035.67822266 C429.08395018 1030.62191343 437.7550378 1025.63215143 446.44897461 1020.67822266 C456.15853077 1015.14502449 465.83551368 1009.55941455 475.48071289 1003.91455078 C484.14655336 998.84511377 492.84190745 993.82785751 501.54711914 988.82641602 C502.56402832 988.24126221 503.5809375 987.6561084 504.62866211 987.05322266 C505.51279785 986.54533203 506.39693359 986.03744141 507.30786133 985.51416016 C508.34442871 984.90830078 509.38099609 984.30244141 510.44897461 983.67822266 C511.25702366 983.30456669 512.06507271 982.93091072 512.89760809 982.54593185 C518.12144456 980.02707986 518.12144456 980.02707986 521.38732876 975.48682493 C521.75510015 972.76776456 521.8020289 970.19607254 521.74649239 967.45244598 C521.77458552 965.90349099 521.77458552 965.90349099 521.8032462 964.32324398 C521.85398592 960.845205 521.83325508 957.37124266 521.8130188 953.89294434 C521.8345573 951.38157598 521.86041248 948.87024154 521.89022434 946.35895777 C521.94488379 940.8897778 521.96821807 935.42183128 521.9640274 929.95240402 C521.95780682 921.81922993 522.00831579 913.68709462 522.06943894 905.55418388 C522.18260534 890.18286831 522.22638296 874.81182164 522.24655809 859.44013768 C522.24878538 857.74480997 522.25102323 856.04948227 522.25327158 854.35415459 C522.25438358 853.51242396 522.25549557 852.67069333 522.25664126 851.80345571 C522.26999244 842.47662324 522.3007659 833.14986007 522.33227158 823.82307434 C522.42567013 795.65155691 522.50353094 767.48011858 522.51378059 739.30843353 C522.51412568 738.40723793 522.51447077 737.50604233 522.51482631 736.57753776 C522.51655353 732.00985917 522.51815387 727.44218053 522.51975478 722.87450188 C522.52041227 721.04117183 522.52107018 719.20784177 522.52172852 717.37451172 C522.52219255 716.01202257 522.52219255 716.01202257 522.52266595 714.62200839 C522.53305975 686.08893194 522.63641511 657.55744165 522.80883789 629.02490234 C523.00252764 596.97029703 523.11445671 564.91676585 523.11380184 532.86154222 C523.11403986 529.44232708 523.11460933 526.02311215 523.11541367 522.60389709 C523.11556681 521.76199823 523.11571996 520.92009936 523.11587775 520.0526884 C523.12029348 506.5111517 523.20265806 492.97116744 523.31255548 479.43012425 C523.42096555 465.81499292 523.43970917 452.20198319 523.36813964 438.58659011 C523.32817531 430.49972631 523.35439283 422.41950935 523.4767477 414.33343743 C523.56076917 408.28827718 523.51876814 402.25079254 523.42842089 396.20544153 C523.41136279 393.7652134 523.43469753 391.32429058 523.50295879 388.88495773 C523.85664685 377.91660424 523.85664685 377.91660424 520.44897461 367.67822266 C514.4381526 361.77431058 506.86000295 358.28047183 499.22730957 354.92460424 C495.75445695 353.3666569 492.58160349 351.53338702 489.33178711 349.55712891 C487.41286809 348.45104958 485.49360589 347.34556538 483.57397461 346.24072266 C481.38906923 344.98162464 479.20417369 343.72250955 477.01928711 342.46337891 C475.93421875 341.83834473 474.84915039 341.21331055 473.73120117 340.56933594 C468.30237519 337.44142117 462.8757818 334.30963818 457.44897461 331.17822266 C455.28231878 329.92820387 453.11565211 328.67820387 450.94897461 327.42822266 C377.28230794 284.92822266 303.61564128 242.42822266 229.94897461 199.92822266 C228.87631348 199.30939209 227.80365234 198.69056152 226.69848633 198.05297852 C224.5334039 196.80386748 222.36836479 195.55468136 220.20336914 194.30541992 C214.76281755 191.16619956 209.32150245 188.02831703 203.87866211 184.89306641 C193.42691261 178.87074937 182.98597913 172.83152928 172.57397461 166.74072266 C163.3033353 161.31863567 153.98960762 155.97498254 144.6585083 150.6579895 C135.58118825 145.48443479 126.54325928 140.24680111 117.52709961 134.96728516 C109.86323487 130.48656 102.16211626 126.07328041 94.44897461 121.67822266 C84.72630648 116.13755236 75.03757464 110.54218844 65.37768555 104.89257812 C51.25158886 96.63327416 37.07960712 88.452695 22.86303711 80.35009766 C22.23143677 79.98995575 21.59983643 79.62981384 20.94909668 79.25875854 C17.89603061 77.51812241 14.8419494 75.7793184 11.78588867 74.04394531 C6.46052501 71.01120902 1.19416549 67.9792468 -3.86303711 64.51269531 C-7.90990044 62.5120909 -10.71162089 64.07691796 -14.20727539 66.17822266 Z " fill="#044319" transform="translate(676.551025390625,127.32177734375)"/>
<path d="M0 0 C86.46 0 172.92 0 262 0 C262.76629563 67.69392878 262.76629563 67.69392878 262.92773438 96.00390625 C262.96493096 102.48324493 263.00331927 108.96257488 263.04370117 115.44189453 C263.0487124 116.25391236 263.05372362 117.0659302 263.05888671 117.90255463 C263.14140709 130.99285971 263.29112833 144.08157049 263.46590313 157.17093183 C263.64392018 170.61578742 263.74918572 184.05981162 263.7876814 197.50579727 C263.8136873 205.7962053 263.89562802 214.08210923 264.05041287 222.37112938 C264.15127386 228.06430142 264.1811128 233.75516449 264.15652617 239.44916393 C264.14440906 242.73127159 264.17276607 246.0039543 264.26490402 249.28501129 C264.77599482 268.43113029 264.77599482 268.43113029 260.12492204 274.41063452 C255.63807636 278.67434539 250.63676044 281.8222029 245.21422923 284.76157165 C242.30531608 286.38853984 239.81588902 288.2913652 237.21875 290.375 C236.43048828 290.97957031 235.64222656 291.58414062 234.83007812 292.20703125 C234.06115234 292.79871094 233.29222656 293.39039063 232.5 294 C225.11503204 299.65540297 217.66801745 305.2147297 210.1640625 310.7109375 C203.32771275 315.73031722 196.58781756 320.8707832 189.85351562 326.02587891 C183.94748867 330.5385826 177.99420594 334.98021248 172 339.375 C165.22204454 344.34586796 158.52697178 349.40159454 151.88085938 354.54785156 C140.40945071 363.40454143 128.85706861 372.14610871 117.16552734 380.70996094 C111.22415777 385.07197911 105.35293281 389.52018926 99.5 394 C92.11358208 399.65353395 84.66805534 405.21470194 77.1640625 410.7109375 C70.32475923 415.73248575 63.58210329 420.87536687 56.84472656 426.0324707 C51.02422972 430.47961002 45.15829966 434.85781375 39.25 439.1875 C32.59774351 444.06307964 26.01345989 449.01600675 19.47460938 454.04248047 C14.09643228 458.17312944 8.68077628 462.25130653 3.25 466.3125 C-3.71795084 471.52330369 -10.65108762 476.77696488 -17.5625 482.0625 C-24.92920865 487.69335161 -32.356034 493.23220214 -39.83618164 498.71118164 C-45.77694527 503.07284082 -51.64762344 507.52061501 -57.5 512 C-64.87476913 517.64461801 -72.30765042 523.19830092 -79.80078125 528.68457031 C-87.01600378 533.98078618 -94.13314984 539.40239324 -101.23632812 544.84765625 C-102.07615234 545.49089844 -102.91597656 546.13414062 -103.78125 546.796875 C-104.52439453 547.36760742 -105.26753906 547.93833984 -106.03320312 548.52636719 C-110.43483947 551.82431617 -112.65758893 552.24820491 -118.15629578 552.24050903 C-118.8880452 552.24222107 -119.61979462 552.24393311 -120.37371826 552.24569702 C-122.83998268 552.24901445 -125.30597709 552.23794909 -127.7722168 552.22705078 C-129.56478523 552.2264383 -131.35735415 552.22670477 -133.14992237 552.2277813 C-137.95859354 552.22823357 -142.76716556 552.21662595 -147.57581329 552.20256042 C-152.08492858 552.19118656 -156.59401952 552.19063506 -161.10314941 552.18920898 C-174.29794612 552.1787064 -187.49272431 552.15078419 -200.6875 552.125 C-230.160625 552.08375 -259.63375 552.0425 -290 552 C-290 465.54 -290 379.08 -290 290 C-194.3 290 -98.6 290 0 290 C0 194.3 0 98.6 0 0 Z " fill="#034418" transform="translate(554,386)"/>
<path d="M0 0 C6.04510464 3.96076962 11.94422229 8.07183543 17.75 12.375 C18.56146484 12.97441406 19.37292969 13.57382812 20.20898438 14.19140625 C27.24505111 19.40529833 34.20687617 24.71438174 41.16113281 30.03662109 C46.89689752 34.41925236 52.67657018 38.73467849 58.5 43 C65.22497206 47.92564843 71.88047779 52.93354988 78.5 58 C86.0056476 63.74371634 93.56687643 69.40205903 101.1875 74.9921875 C106.80528421 79.11377792 112.3871286 83.28018779 117.95361328 87.47070312 C123.00472446 91.26747795 128.09243385 95.01250082 133.1875 98.75 C140.91563489 104.42318222 148.55002954 110.21139146 156.1628418 116.03808594 C161.89817538 120.42004356 167.67717501 124.7351215 173.5 129 C180.22497458 133.92565028 186.88038993 138.93366232 193.5 144 C203.24542339 151.4553294 213.10033874 158.75129406 223 166 C235.74710605 175.33365506 248.3794418 184.80263151 260.91967773 194.4128418 C262.93816193 195.95282135 264.96891115 197.47668337 267 199 C267 219.13 267 239.26 267 260 C171.3 260 75.6 260 -23 260 C-23 355.7 -23 451.4 -23 550 C-109.46 550 -195.92 550 -285 550 C-285 454.3 -285 358.6 -285 260 C-306.45 260 -327.9 260 -350 260 C-344.37641723 254.37641723 -344.37641723 254.37641723 -341.0234375 251.94140625 C-340.28029297 251.39806641 -339.53714844 250.85472656 -338.77148438 250.29492188 C-337.98064453 249.72322266 -337.18980469 249.15152344 -336.375 248.5625 C-334.66397871 247.3139169 -332.9530436 246.06521569 -331.2421875 244.81640625 C-330.37045898 244.18234863 -329.49873047 243.54829102 -328.60058594 242.89501953 C-324.55466531 239.94679986 -320.52783803 236.97284817 -316.5 234 C-314.91676909 232.83319435 -313.33343546 231.66652805 -311.75 230.5 C-310.96625 229.9225 -310.1825 229.345 -309.375 228.75 C-283.25 209.5 -283.25 209.5 -280.87426758 207.74951172 C-279.29331017 206.58456151 -277.71241808 205.41952266 -276.1315918 204.25439453 C-272.13744172 201.3107302 -268.1421157 198.36868654 -264.14453125 195.4296875 C-256.73980537 189.98363105 -249.34575634 184.52542234 -242 179 C-233.8501105 172.86971479 -225.6397739 166.82289741 -217.42333984 160.78222656 C-213.44677482 157.85769254 -209.47353729 154.92864567 -205.5 152 C-203.91668304 150.83331112 -202.33334969 149.66664447 -200.75 148.5 C-199.96625 147.9225 -199.1825 147.345 -198.375 146.75 C-172.25 127.5 -172.25 127.5 -169.87426758 125.74951172 C-168.29331017 124.58456151 -166.71241808 123.41952266 -165.1315918 122.25439453 C-161.13744172 119.3107302 -157.1421157 116.36868654 -153.14453125 113.4296875 C-145.73980537 107.98363105 -138.34575634 102.52542234 -131 97 C-122.8501105 90.86971479 -114.6397739 84.82289741 -106.42333984 78.78222656 C-102.44677487 75.85769258 -98.47350607 72.92868794 -94.5 70 C-89.66923943 66.43967646 -84.83782242 62.88025714 -80.00390625 59.32421875 C-69.97554936 51.94767618 -69.97554936 51.94767618 -60 44.5 C-50.90481687 37.65647556 -41.71644132 30.93777371 -32.54589844 24.19580078 C-21.65376689 16.1876534 -10.79929166 8.13298379 0 0 Z " fill="#066A18" transform="translate(839,678)"/>
<path d="M0 0 C2.09099808 1.21320038 2.09099808 1.21320038 4.4921875 0.28515625 C5.34554687 -0.15828125 6.19890625 -0.60171875 7.078125 -1.05859375 C7.97789062 -1.52136719 8.87765625 -1.98414063 9.8046875 -2.4609375 C11.23941406 -3.22083984 11.23941406 -3.22083984 12.703125 -3.99609375 C27.5492222 -11.37404485 42.71488075 -12.16988787 58.51171875 -7.37890625 C75.95749892 -0.92033703 88.66071474 10.97164411 96.515625 27.75390625 C102.60337411 42.01747301 101.8934443 59.23259385 96.48828125 73.55859375 C92.74645686 82.53482622 87.91336433 88.9907068 81.078125 95.94140625 C80.1190625 96.91980469 80.1190625 96.91980469 79.140625 97.91796875 C66.73711118 109.64962557 51.4125857 112.67400542 34.95703125 112.21875 C24.22780399 111.72062945 15.99196557 108.8324489 6.953125 103.171875 C4.17999683 101.64039854 4.17999683 101.64039854 1.52734375 102.58984375 C0.71910156 103.03585937 -0.08914063 103.481875 -0.921875 103.94140625 C-1.76105469 104.33199219 -2.60023438 104.72257813 -3.46484375 105.125 C-5.21622806 105.95542004 -6.96625152 106.78871676 -8.71484375 107.625 C-17.09966192 111.06675849 -24.59813083 112.49883041 -33.671875 112.44140625 C-34.72592529 112.43568604 -35.77997559 112.42996582 -36.8659668 112.42407227 C-45.43895437 112.22840814 -52.22771561 110.92570015 -59.921875 106.94140625 C-60.86675781 106.45671875 -61.81164062 105.97203125 -62.78515625 105.47265625 C-73.64944133 99.20302639 -83.66169625 89.40167029 -88.921875 77.94140625 C-89.64697266 76.36552734 -89.64697266 76.36552734 -90.38671875 74.7578125 C-95.74714968 61.20082237 -96.70235119 43.53097857 -90.921875 29.94140625 C-90.50808594 28.96300781 -90.09429688 27.98460937 -89.66796875 26.9765625 C-81.18720522 8.65164294 -67.08321711 -2.06498343 -48.5625 -8.93359375 C-32.60526806 -13.38677476 -13.20177225 -9.8538408 0 0 Z " fill="#FAFBFA" transform="translate(820.921875,792.05859375)"/>
<path d="M0 0 C73.92 0 147.84 0 224 0 C224 54.78 224 109.56 224 166 C221.01888108 164.50944054 218.74348056 163.18654964 216.12109375 161.234375 C215.37472656 160.68136719 214.62835937 160.12835937 213.859375 159.55859375 C212.66054687 158.66333984 212.66054687 158.66333984 211.4375 157.75 C209.71750821 156.47387706 207.99745442 155.19783769 206.27734375 153.921875 C205.39933105 153.26896484 204.52131836 152.61605469 203.61669922 151.94335938 C199.58658775 148.95029282 195.54297002 145.97565964 191.5 143 C189.91403016 141.83077303 188.32809275 140.66150208 186.7421875 139.4921875 C183.60497114 137.18021507 180.46411724 134.87331698 177.3203125 132.5703125 C168.87796796 126.37896686 160.499828 120.11509442 152.1875 113.75 C145.96532856 108.98591268 139.71089184 104.29956612 133.30419922 99.78710938 C128.23493773 96.20323184 123.27201881 92.48382538 118.3125 88.75 C111.71095857 83.78007533 105.09348538 78.83432472 98.4375 73.9375 C97.65729492 73.36346436 96.87708984 72.78942871 96.07324219 72.19799805 C93.71599203 70.46465422 91.35812154 68.73215813 89 67 C78.4549331 59.25412132 67.94180957 51.46983746 57.48291016 43.60791016 C49.4900196 37.60507988 41.44499581 31.67448323 33.38964844 25.75585938 C26.9636883 21.03420988 20.54178376 16.30707283 14.12695312 11.5703125 C12.75381376 10.55653468 11.38015309 9.54346241 10.00585938 8.53125 C8.2722688 7.25329422 6.54181255 5.97123575 4.8125 4.6875 C3.87019531 3.99011719 2.92789063 3.29273438 1.95703125 2.57421875 C1.31121094 2.05472656 0.66539062 1.53523437 0 1 C0 0.67 0 0.34 0 0 Z " fill="#034419" transform="translate(882,676)"/>
<path d="M0 0 C-2.01014193 5.33692682 -4.70086173 10.28702631 -7.34375 15.33203125 C-13.48520574 28.14643145 -12.68847281 44.31865234 -8.21191406 57.51757812 C-6.06287448 63.32627925 -3.24541626 68.73595714 0 74 C-2.72196937 76.20967128 -5.09728267 77.57141325 -8.4375 78.625 C-9.17871094 78.86476563 -9.91992188 79.10453125 -10.68359375 79.3515625 C-22.50392262 82.66045726 -33.07129632 81.58668808 -44 76 C-55.77807738 69.11928381 -62.27639847 60.03260535 -66 47 C-68.64842254 35.73087323 -67.18723566 24.94844963 -61.19921875 15.01171875 C-46.46403696 -6.13255181 -22.79347047 -11.60584964 0 0 Z " fill="#044419" transform="translate(811,806)"/>
<path d="M0 0 C10.42497437 6.8713632 17.51912989 16.1064659 20.21484375 28.45703125 C21.53263743 42.0670042 20.10570245 53.92278532 12.02734375 65.33203125 C3.9848745 74.7988687 -7.45627823 80.40800458 -19.78515625 81.66015625 C-28.67733564 81.8685667 -38.1035505 80.0659947 -45.78515625 75.45703125 C-44.51806736 72.15562533 -43.08357766 69.06938189 -41.41015625 65.95703125 C-33.72759683 50.43233402 -32.08856905 34.1696258 -37.5 17.625 C-39.19660608 13.44278866 -41.21716407 9.54526109 -43.515625 5.6640625 C-44.78515625 3.45703125 -44.78515625 3.45703125 -45.78515625 0.45703125 C-44.60195049 -0.17606066 -43.41327777 -0.79893593 -42.22265625 -1.41796875 C-41.56136719 -1.76601563 -40.90007813 -2.1140625 -40.21875 -2.47265625 C-27.26401364 -8.17024496 -12.26491133 -6.79472647 0 0 Z " fill="#044419" transform="translate(882.78515625,805.54296875)"/>
<path d="M0 0 C0.66 0 1.32 0 2 0 C2.82011312 1.55851755 3.63076213 3.12201716 4.4375 4.6875 C4.88996094 5.55761719 5.34242188 6.42773438 5.80859375 7.32421875 C9.43927681 15.4783758 9.61838214 27.39503969 6.91796875 35.93359375 C5.45119956 39.72521325 3.81678207 43.36643585 2 47 C1.34 47 0.68 47 0 47 C-0.81436868 45.23002526 -1.6264294 43.45898848 -2.4375 41.6875 C-2.88996094 40.70136719 -3.34242188 39.71523438 -3.80859375 38.69921875 C-7.87318346 29.49059092 -7.30996299 16.3497928 -3.859375 6.92578125 C-2.75191984 4.44407492 -1.65790628 2.16248645 0 0 Z " fill="#064418" transform="translate(823,820)"/>
<path d="M0 0 C0 3 0 3 -1.93359375 5.19140625 C-2.75988281 5.97386719 -3.58617187 6.75632812 -4.4375 7.5625 C-7.63841178 10.46895693 -7.63841178 10.46895693 -10 14 C-10.66 13.67 -11.32 13.34 -12 13 C-4.88610478 3.40546697 -4.88610478 3.40546697 0 0 Z " fill="#11491E" transform="translate(762,808)"/>
</svg>
