<?xml version="1.0" encoding="UTF-8"?>
<svg version="1.1" xmlns="http://www.w3.org/2000/svg" width="335" height="400">
<path d="M0 0 C1.83386386 1.04401548 3.66975946 2.08447136 5.5078125 3.12109375 C7.38231326 4.22298949 9.25463557 5.32859775 11.125 6.4375 C13.23402286 7.67768236 15.34341061 8.91724438 17.453125 10.15625 C19.07057617 11.10757813 19.07057617 11.10757813 20.72070312 12.078125 C26.0899469 15.22484083 31.48205548 18.33163277 36.875 21.4375 C37.95555664 22.06011719 39.03611328 22.68273437 40.14941406 23.32421875 C42.34171575 24.5873804 44.53409859 25.8504012 46.7265625 27.11328125 C49.9647516 28.9796838 53.20139438 30.84873763 56.4375 32.71875 C67.06041162 38.85603799 77.69401457 44.97347859 88.35125732 51.05090332 C98.00679909 56.5576288 107.64554351 62.09198331 117.25 67.6875 C118.21953613 68.25154541 119.18907227 68.81559082 120.18798828 69.39672852 C121.1004834 69.92967529 122.01297852 70.46262207 122.953125 71.01171875 C123.73848633 71.47022217 124.52384766 71.92872559 125.33300781 72.40112305 C126.21311523 72.92875244 127.09322266 73.45638184 128 74 C128.64886106 74.22722402 129.29772213 74.45444803 129.96624565 74.68855762 C132.59967425 75.82223282 134.10690077 76.82394558 136 79 C137.32959715 84.27201988 137.24016105 89.56432864 137.25732422 94.96679688 C137.29109662 96.62136345 137.32805281 98.27586765 137.36795044 99.93029785 C137.46424514 104.42250955 137.50769516 108.91369901 137.53564596 113.40680504 C137.55468045 116.21770946 137.58358611 119.02834276 137.61566544 121.83912659 C137.72564168 131.65781182 137.78759795 141.47567003 137.81201172 151.29492188 C137.83618884 160.42761434 137.97313401 169.55400287 138.16146457 178.68464613 C138.31776255 186.53814614 138.38858196 194.38955815 138.39530957 202.24459887 C138.40106987 206.9308679 138.44156667 211.61039367 138.57058334 216.29502869 C139.30770594 244.69698801 139.30770594 244.69698801 133.83483887 251.81666946 C128.67017044 256.28187156 123.00042915 258.88002441 116.58308029 261.0726738 C113.09490199 262.32493032 110.21183284 264.05649597 107.078125 266.0234375 C105.13611511 267.14183867 103.19341594 268.25904388 101.25 269.375 C99.04685608 270.64319629 96.84373165 271.91142645 94.640625 273.1796875 C93.54298828 273.81100586 92.44535156 274.44232422 91.31445312 275.09277344 C85.87349427 278.22364929 80.43697492 281.36221277 75 284.5 C72.83073999 285.75132085 70.66146916 287.00262293 68.4921875 288.25390625 C64.18398349 290.73930902 59.87677211 293.22641977 55.5703125 295.71484375 C46.65845716 300.86292484 37.74471211 306.00740932 28.80859375 311.11328125 C28.20869629 311.45647903 27.60879883 311.79967682 26.99072266 312.15327454 C24.00068572 313.86268923 21.00686731 315.56471045 18.00439453 317.25219727 C12.70344527 320.2451259 7.49371032 323.27714553 2.43359375 326.6640625 C1.59046631 327.21030273 0.74733887 327.75654297 -0.12133789 328.31933594 C-1.64608441 329.31653237 -3.14736307 330.3511627 -4.61499023 331.43066406 C-6.85492141 332.86983525 -8.35356808 333.64727484 -11 334 C-15.39260521 332.64887043 -19.09876631 330.39424996 -23 328 C-24.83533976 326.95858129 -26.67126246 325.91818914 -28.5078125 324.87890625 C-30.38231326 323.77701051 -32.25463557 322.67140225 -34.125 321.5625 C-36.23402286 320.32231764 -38.34341061 319.08275562 -40.453125 317.84375 C-41.53142578 317.20953125 -42.60972656 316.5753125 -43.72070312 315.921875 C-49.0899469 312.77515917 -54.48205548 309.66836723 -59.875 306.5625 C-60.95555664 305.93988281 -62.03611328 305.31726563 -63.14941406 304.67578125 C-65.34171575 303.4126196 -67.53409859 302.1495988 -69.7265625 300.88671875 C-72.9647516 299.0203162 -76.20139438 297.15126237 -79.4375 295.28125 C-90.06041162 289.14396201 -100.69401457 283.02652141 -111.35125732 276.94909668 C-121.00679909 271.4423712 -130.64554351 265.90801669 -140.25 260.3125 C-141.21953613 259.74845459 -142.18907227 259.18440918 -143.18798828 258.60327148 C-144.1004834 258.07032471 -145.01297852 257.53737793 -145.953125 256.98828125 C-146.73848633 256.52977783 -147.52384766 256.07127441 -148.33300781 255.59887695 C-149.21311523 255.07124756 -150.09322266 254.54361816 -151 254 C-151.64886106 253.77277598 -152.29772213 253.54555197 -152.96624565 253.31144238 C-155.59967425 252.17776718 -157.10690077 251.17605442 -159 249 C-160.32959715 243.72798012 -160.24016105 238.43567136 -160.25732422 233.03320312 C-160.29109662 231.37863655 -160.32805281 229.72413235 -160.36795044 228.06970215 C-160.46424514 223.57749045 -160.50769516 219.08630099 -160.53564596 214.59319496 C-160.55468045 211.78229054 -160.58358611 208.97165724 -160.61566544 206.16087341 C-160.72564168 196.34218818 -160.78759795 186.52432997 -160.81201172 176.70507812 C-160.83618884 167.57238566 -160.97313401 158.44599713 -161.16146457 149.31535387 C-161.31776255 141.46185386 -161.38858196 133.61044185 -161.39530957 125.75540113 C-161.40106987 121.0691321 -161.44156667 116.38960633 -161.57058334 111.70497131 C-162.30770594 83.30301199 -162.30770594 83.30301199 -156.83483887 76.18333054 C-151.67017111 71.71812902 -146.00043053 69.11997568 -139.5830822 66.92732716 C-136.09490424 65.67507039 -133.21183041 63.94350666 -130.078125 61.9765625 C-128.13612572 60.85814291 -126.19342645 59.74093782 -124.25 58.625 C-122.04423979 57.35552269 -119.83851155 56.08598982 -117.6328125 54.81640625 C-116.53485352 54.18492676 -115.43689453 53.55344727 -114.30566406 52.90283203 C-111.05351687 51.03080579 -107.8036623 49.15486965 -104.5546875 47.27734375 C-92.75629607 40.45995737 -80.93940599 33.67653489 -69.10232544 26.92666626 C-61.90402605 22.82047757 -54.72058876 18.69034879 -47.56787109 14.50512695 C-45.58609592 13.34777669 -43.6008042 12.19642415 -41.61181641 11.05151367 C-36.73804017 8.23858533 -31.96095427 5.34694961 -27.26171875 2.25 C-26.33351318 1.6612207 -25.40530762 1.07244141 -24.44897461 0.46582031 C-22.70692016 -0.64165673 -20.98760981 -1.78615647 -19.29907227 -2.97363281 C-11.63497986 -7.74352087 -7.11092395 -4.47942183 0 0 Z " fill="#FAFBFB" transform="translate(179,36)"/>
<path d="M0 0 C1.83386386 1.04401548 3.66975946 2.08447136 5.5078125 3.12109375 C7.38231326 4.22298949 9.25463557 5.32859775 11.125 6.4375 C13.23402286 7.67768236 15.34341061 8.91724438 17.453125 10.15625 C19.07057617 11.10757813 19.07057617 11.10757813 20.72070312 12.078125 C26.0899469 15.22484083 31.48205548 18.33163277 36.875 21.4375 C37.95555664 22.06011719 39.03611328 22.68273437 40.14941406 23.32421875 C42.34171575 24.5873804 44.53409859 25.8504012 46.7265625 27.11328125 C49.9647516 28.9796838 53.20139438 30.84873763 56.4375 32.71875 C67.06041162 38.85603799 77.69401457 44.97347859 88.35125732 51.05090332 C98.00679909 56.5576288 107.64554351 62.09198331 117.25 67.6875 C118.21953613 68.25154541 119.18907227 68.81559082 120.18798828 69.39672852 C121.1004834 69.92967529 122.01297852 70.46262207 122.953125 71.01171875 C123.73848633 71.47022217 124.52384766 71.92872559 125.33300781 72.40112305 C126.21311523 72.92875244 127.09322266 73.45638184 128 74 C128.64886106 74.22722402 129.29772213 74.45444803 129.96624565 74.68855762 C132.59967425 75.82223282 134.10690077 76.82394558 136 79 C137.32959715 84.27201988 137.24016105 89.56432864 137.25732422 94.96679688 C137.29109662 96.62136345 137.32805281 98.27586765 137.36795044 99.93029785 C137.46424514 104.42250955 137.50769516 108.91369901 137.53564596 113.40680504 C137.55468045 116.21770946 137.58358611 119.02834276 137.61566544 121.83912659 C137.72564168 131.65781182 137.78759795 141.47567003 137.81201172 151.29492188 C137.83618884 160.42761434 137.97313401 169.55400287 138.16146457 178.68464613 C138.31776255 186.53814614 138.38858196 194.38955815 138.39530957 202.24459887 C138.40106987 206.9308679 138.44156667 211.61039367 138.57058334 216.29502869 C139.30770594 244.69698801 139.30770594 244.69698801 133.83483887 251.81666946 C128.67017044 256.28187156 123.00042915 258.88002441 116.58308029 261.0726738 C113.09490199 262.32493032 110.21183284 264.05649597 107.078125 266.0234375 C105.13611511 267.14183867 103.19341594 268.25904388 101.25 269.375 C99.04685608 270.64319629 96.84373165 271.91142645 94.640625 273.1796875 C93.54298828 273.81100586 92.44535156 274.44232422 91.31445312 275.09277344 C85.87349427 278.22364929 80.43697492 281.36221277 75 284.5 C72.83073999 285.75132085 70.66146916 287.00262293 68.4921875 288.25390625 C64.18398349 290.73930902 59.87677211 293.22641977 55.5703125 295.71484375 C46.65845716 300.86292484 37.74471211 306.00740932 28.80859375 311.11328125 C28.20869629 311.45647903 27.60879883 311.79967682 26.99072266 312.15327454 C24.00068572 313.86268923 21.00686731 315.56471045 18.00439453 317.25219727 C12.70344527 320.2451259 7.49371032 323.27714553 2.43359375 326.6640625 C1.59046631 327.21030273 0.74733887 327.75654297 -0.12133789 328.31933594 C-1.64608441 329.31653237 -3.14736307 330.3511627 -4.61499023 331.43066406 C-6.85492141 332.86983525 -8.35356808 333.64727484 -11 334 C-15.39260521 332.64887043 -19.09876631 330.39424996 -23 328 C-24.83533976 326.95858129 -26.67126246 325.91818914 -28.5078125 324.87890625 C-30.38231326 323.77701051 -32.25463557 322.67140225 -34.125 321.5625 C-36.23402286 320.32231764 -38.34341061 319.08275562 -40.453125 317.84375 C-41.53142578 317.20953125 -42.60972656 316.5753125 -43.72070312 315.921875 C-49.0899469 312.77515917 -54.48205548 309.66836723 -59.875 306.5625 C-60.95555664 305.93988281 -62.03611328 305.31726563 -63.14941406 304.67578125 C-65.34171575 303.4126196 -67.53409859 302.1495988 -69.7265625 300.88671875 C-72.9647516 299.0203162 -76.20139438 297.15126237 -79.4375 295.28125 C-90.06041162 289.14396201 -100.69401457 283.02652141 -111.35125732 276.94909668 C-121.00679909 271.4423712 -130.64554351 265.90801669 -140.25 260.3125 C-141.21953613 259.74845459 -142.18907227 259.18440918 -143.18798828 258.60327148 C-144.1004834 258.07032471 -145.01297852 257.53737793 -145.953125 256.98828125 C-146.73848633 256.52977783 -147.52384766 256.07127441 -148.33300781 255.59887695 C-149.21311523 255.07124756 -150.09322266 254.54361816 -151 254 C-151.64886106 253.77277598 -152.29772213 253.54555197 -152.96624565 253.31144238 C-155.59967425 252.17776718 -157.10690077 251.17605442 -159 249 C-160.32959715 243.72798012 -160.24016105 238.43567136 -160.25732422 233.03320312 C-160.29109662 231.37863655 -160.32805281 229.72413235 -160.36795044 228.06970215 C-160.46424514 223.57749045 -160.50769516 219.08630099 -160.53564596 214.59319496 C-160.55468045 211.78229054 -160.58358611 208.97165724 -160.61566544 206.16087341 C-160.72564168 196.34218818 -160.78759795 186.52432997 -160.81201172 176.70507812 C-160.83618884 167.57238566 -160.97313401 158.44599713 -161.16146457 149.31535387 C-161.31776255 141.46185386 -161.38858196 133.61044185 -161.39530957 125.75540113 C-161.40106987 121.0691321 -161.44156667 116.38960633 -161.57058334 111.70497131 C-162.30770594 83.30301199 -162.30770594 83.30301199 -156.83483887 76.18333054 C-151.67017111 71.71812902 -146.00043053 69.11997568 -139.5830822 66.92732716 C-136.09490424 65.67507039 -133.21183041 63.94350666 -130.078125 61.9765625 C-128.13612572 60.85814291 -126.19342645 59.74093782 -124.25 58.625 C-122.04423979 57.35552269 -119.83851155 56.08598982 -117.6328125 54.81640625 C-116.53485352 54.18492676 -115.43689453 53.55344727 -114.30566406 52.90283203 C-111.05351687 51.03080579 -107.8036623 49.15486965 -104.5546875 47.27734375 C-92.75629607 40.45995737 -80.93940599 33.67653489 -69.10232544 26.92666626 C-61.90402605 22.82047757 -54.72058876 18.69034879 -47.56787109 14.50512695 C-45.58609592 13.34777669 -43.6008042 12.19642415 -41.61181641 11.05151367 C-36.73804017 8.23858533 -31.96095427 5.34694961 -27.26171875 2.25 C-26.33351318 1.6612207 -25.40530762 1.07244141 -24.44897461 0.46582031 C-22.70692016 -0.64165673 -20.98760981 -1.78615647 -19.29907227 -2.97363281 C-11.63497986 -7.74352087 -7.11092395 -4.47942183 0 0 Z M-18.50390625 14.97265625 C-19.62361816 15.61726807 -20.74333008 16.26187988 -21.89697266 16.92602539 C-23.11887999 17.63807226 -24.34072067 18.35023351 -25.5625 19.0625 C-26.8282687 19.79413488 -28.09438702 20.5251652 -29.36083984 21.25561523 C-31.97028412 22.76199983 -34.57758469 24.27199572 -37.18310547 25.78515625 C-40.69198355 27.82260496 -44.20634118 29.85040733 -47.72265625 31.875 C-54.15198957 35.57719557 -60.57644607 39.28778791 -67 43 C-71.29122774 45.47992741 -75.58283089 47.9592022 -79.875 50.4375 C-80.93960449 51.05230225 -82.00420898 51.66710449 -83.10107422 52.30053711 C-88.75468749 55.56217174 -94.41483437 58.81186941 -100.0859375 62.04296875 C-100.6781459 62.38039093 -101.27035431 62.71781311 -101.88050842 63.06546021 C-102.76880592 63.57156326 -102.76880592 63.57156326 -103.67504883 64.08789062 C-113.71603484 69.8088917 -123.73490945 75.56359745 -133.6875 81.4375 C-134.62045898 81.98744629 -135.55341797 82.53739258 -136.51464844 83.10400391 C-137.78163574 83.85496338 -137.78163574 83.85496338 -139.07421875 84.62109375 C-139.81244873 85.0586499 -140.55067871 85.49620605 -141.3112793 85.94702148 C-142.96546977 86.89017453 -142.96546977 86.89017453 -144 88 C-144.1163683 89.94758697 -144.16192843 91.89941862 -144.18081665 93.85038757 C-144.19519775 95.12204269 -144.20957886 96.39369781 -144.22439575 97.70388794 C-144.23521175 99.12640256 -144.24585658 100.54891849 -144.25634766 101.97143555 C-144.27078912 103.45936887 -144.28554666 104.94729916 -144.30059814 106.43522644 C-144.43099294 120.03179841 -144.4967533 133.62920123 -144.54844093 147.22627544 C-144.58735492 157.28074069 -144.65570152 167.33408596 -144.76298869 177.38805932 C-144.8358407 184.45306492 -144.87427564 191.51776423 -144.88746679 198.58313018 C-144.8963351 202.80481992 -144.92060765 207.02512643 -144.98213577 211.24640465 C-145.03939893 215.22039393 -145.0540528 219.19228778 -145.03626251 223.16662788 C-145.03714073 224.62356809 -145.05339315 226.08059415 -145.08630753 227.53716278 C-145.48959939 235.43521769 -145.48959939 235.43521769 -142.06637192 242.15155983 C-139.76464034 243.71588695 -137.54300492 244.88058444 -135 246 C-133.66911494 246.74868802 -132.34361962 247.50716561 -131.02734375 248.28125 C-129.66571265 249.02386701 -128.30235109 249.76331773 -126.9375 250.5 C-119.76523937 254.42907248 -112.67908398 258.48772607 -105.625 262.625 C-96.82246134 267.78379243 -87.98866947 272.88462144 -79.125 277.9375 C-71.10722159 282.50930854 -63.09381853 287.08801623 -55.09985352 291.70141602 C-52.96597468 292.9328914 -50.83106059 294.16257481 -48.69506836 295.39038086 C-43.64121741 298.29928119 -38.60133622 301.22771995 -33.59570312 304.21873474 C-31.20693763 305.64434951 -28.81193255 307.05928581 -26.4163208 308.47335815 C-24.72493513 309.47776954 -23.04275793 310.49763637 -21.36083984 311.51782227 C-20.33812988 312.12037842 -19.31541992 312.72293457 -18.26171875 313.34375 C-17.36412842 313.88193359 -16.46653809 314.42011719 -15.54174805 314.97460938 C-12.48727516 316.20684318 -11.09704494 316.01092942 -8 315 C-5.53897275 313.68628439 -3.18528912 312.33238679 -0.8125 310.875 C0.71274102 309.95830195 2.23883949 309.0430296 3.765625 308.12890625 C4.60029297 307.62762207 5.43496094 307.12633789 6.29492188 306.60986328 C11.3116095 303.62430027 16.37712052 300.72317082 21.4375 297.8125 C23.68884311 296.51569622 25.94014466 295.21882029 28.19140625 293.921875 C29.32078613 293.27154297 30.45016602 292.62121094 31.61376953 291.95117188 C34.89880622 290.05830863 38.18216436 288.16257293 41.46484375 286.265625 C52.07855779 280.13340067 62.70313349 274.02132124 73.35125732 267.94909668 C83.00679909 262.4423712 92.64554351 256.90801669 102.25 251.3125 C103.21953613 250.74845459 104.18907227 250.18440918 105.18798828 249.60327148 C106.1004834 249.07032471 107.01297852 248.53737793 107.953125 247.98828125 C108.73848633 247.52977783 109.52384766 247.07127441 110.33300781 246.59887695 C111.21311523 246.07124756 112.09322266 245.54361816 113 245 C113.97522472 244.63151396 113.97522472 244.63151396 114.97015095 244.25558376 C117.51894974 243.10779696 119.10971929 242.07737413 121 240 C122.27775488 235.26012735 122.16736064 230.49837428 122.14624023 225.62207031 C122.16855128 224.13836587 122.19415328 222.65470782 122.22279358 221.17111206 C122.28913611 217.14583671 122.30382795 213.12195756 122.305125 209.09619236 C122.30975999 205.73151487 122.33672974 202.36714987 122.36276299 199.00258136 C122.42269587 191.06013407 122.43780595 183.11842075 122.42749023 175.17578125 C122.41785274 166.99397438 122.49339361 158.81599609 122.60952228 150.63509297 C122.70576213 143.60201671 122.74377095 136.57018151 122.7366901 129.53645396 C122.73335403 125.33917733 122.75283782 121.14515235 122.83047295 116.94852448 C123.91267725 100.69951492 123.91267725 100.69951492 119.54316139 85.7524128 C115.57548764 81.92713809 111.19779842 80.5318121 106 79 C103.91265102 77.85623734 101.84929284 76.665623 99.83203125 75.40234375 C97.82637249 74.2459175 95.81984017 73.09100518 93.8125 71.9375 C92.71373535 71.30465088 91.6149707 70.67180176 90.48291016 70.01977539 C81.70058865 64.96593841 72.90024253 59.94383946 64.09829712 54.92428589 C55.06897439 49.77361131 46.07820252 44.55998741 37.10839844 39.30639648 C27.98262611 33.96984323 18.80412989 28.72733305 9.61328125 23.50390625 C8.50597656 22.87355469 7.39867187 22.24320313 6.2578125 21.59375 C5.19981445 20.99175781 4.14181641 20.38976562 3.05175781 19.76953125 C-0.675768 17.60816269 -4.33760852 15.34893336 -7.98095703 13.04882812 C-12.22171673 10.84588935 -14.70277721 12.76966253 -18.50390625 14.97265625 Z " fill="#07441B" transform="translate(179,36)"/>
<path d="M0 0 C21.45 0 42.9 0 65 0 C65.842285 16.32874193 65.842285 16.32874193 66.02539062 23.390625 C66.1501418 28.17891096 66.2961012 32.9586312 66.58422852 37.74023438 C68.087615 63.35861069 68.087615 63.35861069 63.02410889 70.97021484 C58.24273332 75.91364076 52.76715457 79.31537181 46.71322632 82.49975586 C42.33646902 84.91982839 38.4609702 87.96355902 34.5 91 C32.9398101 92.14897683 31.37756817 93.29517697 29.8125 94.4375 C23.76833377 98.89109617 17.81488659 103.46246043 11.85351562 108.02587891 C5.23618261 113.08208054 -1.44062045 118.05087989 -8.16992188 122.95703125 C-8.87697266 123.47394531 -9.58402344 123.99085938 -10.3125 124.5234375 C-11.05927002 125.05114746 -11.80604004 125.57885742 -12.57543945 126.12255859 C-15.12652187 128.01859917 -15.12652187 128.01859917 -17.63354492 130.61572266 C-25.12967367 137.8018841 -31.50365652 139.00377166 -41.77616882 138.96704102 C-44.95608676 138.89124753 -48.13432405 138.75469336 -51.3125 138.625 C-58.469375 138.41875 -65.62625 138.2125 -73 138 C-73 116.22 -73 94.44 -73 72 C-48.91 72 -24.82 72 0 72 C0 48.24 0 24.48 0 0 Z " fill="#044419" transform="translate(139,97)"/>
<path d="M0 0 C3.01411638 1.13964728 5.20150742 3.05477355 7.71679688 5.05615234 C8.88530156 5.97509615 10.05460764 6.8930216 11.22460938 7.81005859 C11.83723633 8.2923291 12.44986328 8.77459961 13.08105469 9.27148438 C16.21933146 11.72148553 19.40413609 14.10846017 22.59179688 16.49365234 C23.58614746 17.23869019 23.58614746 17.23869019 24.60058594 17.9987793 C29.06909882 21.34063847 33.55404479 24.65968724 38.05102539 27.96313477 C39.65762185 29.14725887 41.25971845 30.33751343 42.85717773 31.53393555 C46.73580459 34.42947278 50.62680916 37.1990557 54.72851562 39.77099609 C55.84806641 40.50866211 55.84806641 40.50866211 56.99023438 41.26123047 C58.38105713 42.173801 59.79842226 43.04776203 61.24414062 43.87060547 C63.13476562 45.14599609 63.13476562 45.14599609 65.96679688 48.74365234 C65.96679688 53.69365234 65.96679688 58.64365234 65.96679688 63.74365234 C41.87679687 63.74365234 17.78679687 63.74365234 -7.03320312 63.74365234 C-7.03320312 87.83365234 -7.03320312 111.92365234 -7.03320312 136.74365234 C-28.48320312 136.74365234 -49.93320313 136.74365234 -72.03320312 136.74365234 C-72.03320312 112.65365234 -72.03320312 88.56365234 -72.03320312 63.74365234 C-76.98320312 63.74365234 -81.93320313 63.74365234 -87.03320312 63.74365234 C-81.40768384 58.11813306 -81.40768384 58.11813306 -78.71289062 56.12255859 C-78.10533936 55.66961426 -77.49778809 55.21666992 -76.87182617 54.75 C-76.22383057 54.27353027 -75.57583496 53.79706055 -74.90820312 53.30615234 C-74.2144458 52.79101074 -73.52068848 52.27586914 -72.8059082 51.74511719 C-70.55167299 50.07340339 -68.29280975 48.40809686 -66.03320312 46.74365234 C-64.49797801 45.60963098 -62.96282226 44.47551572 -61.42773438 43.34130859 C-57.44069534 40.3982563 -53.44922289 37.46127218 -49.45654297 34.52587891 C-45.47997788 31.60134484 -41.50677092 28.6722567 -37.53320312 25.74365234 C-35.96549874 24.58869907 -34.39779039 23.43375117 -32.83007812 22.27880859 C-29.506126 19.82968888 -26.18339542 17.37892179 -22.86132812 14.92724609 C-22.01119141 14.30011719 -21.16105469 13.67298828 -20.28515625 13.02685547 C-18.66895466 11.83457561 -17.05304819 10.64189554 -15.4375 9.44873047 C-13.98483545 8.3773427 -12.52924743 7.30990374 -11.0703125 6.24707031 C-9.72208054 5.25205445 -8.38946233 4.23549504 -7.07421875 3.19726562 C-2.51987779 -0.31770794 -2.51987779 -0.31770794 0 0 Z " fill="#076A1A" transform="translate(211.033203125,170.25634765625)"/>
<path d="M0 0 C0.66 -0.33 1.32 -0.66 2 -1 C8.81855126 -1.76038689 13.54578038 -1.2542913 19 3 C21.80790008 6.36614727 22.90272592 9.20791108 23.4375 13.5625 C22.76089326 18.8786958 21.02286886 22.32000937 17 25.8125 C12.11854302 29.37189571 7.8447178 29.46386649 2 29 C0.33333333 28.33333333 -1.33333333 27.66666667 -3 27 C-4.33612266 27.66105859 -5.66910862 28.32847163 -7 29 C-11.60153351 29.71951251 -15.11657853 29.43337657 -19.3125 27.375 C-22.95342677 24.15743681 -25.5913541 21.56029164 -26.3828125 16.6015625 C-26.63977086 10.89708694 -25.8849647 7.40995993 -22 3 C-20.9790625 1.824375 -20.9790625 1.824375 -19.9375 0.625 C-13.8740722 -2.72923665 -6.57983935 -1.18099681 0 0 Z " fill="#EDF2EE" transform="translate(208,197)"/>
<path d="M0 0 C18.15 0 36.3 0 55 0 C55 13.53 55 27.06 55 41 C51.12878209 39.45151283 49.1329494 38.55348192 46.06640625 36.09375 C44.98057251 35.23317993 44.98057251 35.23317993 43.87280273 34.35522461 C43.11040283 33.74300049 42.34800293 33.13077637 41.5625 32.5 C36.10524022 28.18271827 30.63602175 23.93199451 24.9375 19.9375 C19.43668689 16.06722107 14.04233356 12.06998688 8.6875 8 C7.93911865 7.43531006 7.1907373 6.87062012 6.41967773 6.28881836 C5.72817627 5.7603833 5.0366748 5.23194824 4.32421875 4.6875 C3.70635498 4.21699219 3.08849121 3.74648437 2.4519043 3.26171875 C1 2 1 2 0 0 Z " fill="#08471D" transform="translate(222,169)"/>
<path d="M0 0 C1.051875 -0.00386719 1.051875 -0.00386719 2.125 -0.0078125 C4 0.125 4 0.125 6 1.125 C5.67 1.785 5.34 2.445 5 3.125 C2.88102365 9.48192906 3.94663358 14.96490074 6 21.125 C-1.85999484 22.54630626 -1.85999484 22.54630626 -5.875 21.0625 C-8.60104251 18.57699065 -9.79029573 16.61970122 -11 13.125 C-10.90680178 7.8127012 -9.69051529 4.92734908 -6 1.125 C-3.75487738 0.00243869 -2.48543351 -0.00913762 0 0 Z " fill="#104D24" transform="translate(197,199.875)"/>
<path d="M0 0 C4.40104404 0.07944123 6.94294962 1.49210467 10.08203125 4.5234375 C12.05977967 7.45122217 12.15680419 9.85680231 11.87109375 13.3203125 C10.93540949 17.31354771 8.77175118 19.45977417 5.5 21.75 C2.01814268 22.87648325 -1.31773592 23.09113204 -4.625 21.4375 C-4.46257812 20.72722656 -4.30015625 20.01695312 -4.1328125 19.28515625 C-3.62138531 16.41722991 -3.49190519 13.78508318 -3.5 10.875 C-3.49742187 9.94558594 -3.49484375 9.01617187 -3.4921875 8.05859375 C-3.53854231 5.47102974 -3.53854231 5.47102974 -4.1953125 3.16015625 C-4.33710938 2.59167969 -4.47890625 2.02320313 -4.625 1.4375 C-3.625 0.4375 -3.625 0.4375 0 0 Z " fill="#0F4C23" transform="translate(214.625,199.5625)"/>
<path d="M0 0 C2 2 2 2 2.25 5.5 C2 9 2 9 0 11 C-1 10 -1 10 -1.1328125 7.96875 C-1.13023437 7.1540625 -1.12765625 6.339375 -1.125 5.5 C-1.12757813 4.6853125 -1.13015625 3.870625 -1.1328125 3.03125 C-1 1 -1 1 0 0 Z " fill="#175229" transform="translate(206,205)"/>
</svg>
