<?xml version="1.0" encoding="UTF-8" standalone="no"?>
<svg
   version="1.1"
   width="2.8266in"
   height="3.7746in"
   viewBox="0 0 203.5123 271.7680"
   id="svg125"
   sodipodi:docname="Kabupaten Kampar.cdr"
   xmlns:inkscape="http://www.inkscape.org/namespaces/inkscape"
   xmlns:sodipodi="http://sodipodi.sourceforge.net/DTD/sodipodi-0.dtd"
   xmlns="http://www.w3.org/2000/svg"
   xmlns:svg="http://www.w3.org/2000/svg">
  <defs
     id="defs125" />
  <sodipodi:namedview
     id="namedview125"
     pagecolor="#ffffff"
     bordercolor="#000000"
     borderopacity="0.25"
     inkscape:showpageshadow="2"
     inkscape:pageopacity="0.0"
     inkscape:pagecheckerboard="0"
     inkscape:deskcolor="#d1d1d1"
     inkscape:document-units="in" />
  <g
     id="Layer1000">
    <path
       d="  M143.3531,0.3024 L143.4165,12.7298 L156.4826,12.6669 L156.5050,0.0268 L197.8237,0.2735 C197.7458,14.7632 197.7725,29.1112 197.7027,43.6898 L180.2177,43.6040 C180.1655,43.9955 180.1642,44.4884 180.1510,44.8740 C180.1165,45.8789 180.1008,46.8858 180.0877,47.8912 C180.0455,51.1235 180.0425,54.3583 180.0426,57.5908 C180.0429,66.9000 180.0985,76.2101 180.1450,85.5191 C180.1915,94.8229 180.2450,104.1281 180.2375,113.4321 C180.2247,129.0937 180.1052,144.4337 180.1026,160.2326 C180.0964,197.0422 160.9159,228.6551 124.3337,238.6613 C121.1927,239.5204 117.9075,240.2065 114.6971,240.7432 C110.7431,241.4043 107.2638,241.6109 103.3921,241.6513 C79.1817,241.9046 57.4265,232.9623 41.3176,214.8329 C29.7298,201.7915 23.8948,183.5790 23.0041,166.3516 L23.0016,166.3035 C22.8741,125.4497 22.8682,84.8820 22.8701,43.6780 L3.1851,43.6792 C3.2082,29.0073 3.1906,14.6631 3.2022,0.0001 C16.4426,0.1289 29.5647,-0.0190 42.8478,0.1097 L42.9032,12.7320 L55.7902,12.7265 C55.7982,8.4928 55.8016,4.2627 55.8189,0.0293 C68.4378,0.0450 81.0512,0.0057 93.6603,0.0553 L93.7186,12.7369 L107.2085,12.7335 L107.2247,0.1297 L143.3531,0.3024 Z Z M4.2940,219.5459 L5.6492,218.3636 C6.6904,217.4550 7.7264,216.8694 8.8422,216.1000 C11.3592,214.3644 13.8199,212.5311 16.3394,210.7886 C18.0192,209.6269 19.7232,208.4684 21.4654,207.4027 C22.4978,206.7712 24.3078,205.6483 25.5241,205.5922 C29.5739,205.4054 32.8924,207.7537 33.5137,211.8319 L33.6849,212.9558 L28.1815,217.4297 C28.5985,217.9521 28.8907,218.5828 29.2123,219.1607 C29.7758,220.1737 30.4163,221.0672 31.1849,221.9371 C32.2960,223.1943 33.6542,224.1894 34.9554,225.2367 C35.5866,224.5050 36.2155,223.7712 36.8391,223.0332 C37.7143,221.9972 38.6481,220.9091 39.4312,219.8027 L40.3994,218.4350 L41.9109,219.1585 C43.1066,219.7307 44.6714,221.4332 45.6136,222.4033 C46.3687,223.1809 47.2054,224.1052 48.0408,224.7864 C50.0092,226.3917 51.9770,227.9913 53.9847,229.5475 C67.0140,239.6468 85.4351,245.3682 101.8915,245.4755 C118.5445,245.5839 136.7802,239.9774 149.9278,229.7088 C152.0047,228.0867 154.1759,226.4335 156.0974,224.6268 C157.8378,222.9904 159.5113,221.2380 161.2244,219.5661 L162.2971,218.5192 L163.5984,219.2631 C164.7982,219.9489 166.8411,222.6090 167.7434,223.7365 C167.9342,223.9750 168.1240,224.2152 168.3133,224.4563 C168.9587,223.8108 169.6542,223.2709 170.3868,222.7019 C170.9793,222.2418 171.5594,221.7768 172.0449,221.2004 C173.2771,219.7377 173.8761,218.4276 174.8129,216.7794 L174.8164,216.7732 C174.7304,216.7055 174.6445,216.6376 174.5587,216.5695 C173.0763,215.3932 171.3306,214.3166 170.0363,212.9403 L169.4472,212.3140 L169.5005,211.4559 C169.7592,207.2901 173.7233,204.7916 177.6581,204.9733 C178.8682,205.0292 180.9773,206.3776 182.0122,207.0130 C184.0231,208.2476 185.9981,209.5624 187.9564,210.8788 C190.7518,212.7579 193.5129,214.7175 196.3238,216.5665 C196.6646,216.7907 196.9734,216.9791 197.2959,217.2378 C197.6397,217.5136 197.8371,217.7022 198.1178,218.0408 L198.9087,218.9953 C199.6471,219.1291 200.3655,219.4170 201.0363,219.9012 C203.5026,221.6814 203.8197,225.0435 203.2986,227.8070 C202.5940,231.5439 200.3806,235.0542 197.7973,237.7827 C194.1207,241.6658 190.2627,245.0131 185.0318,246.6021 C181.6148,247.6401 177.7267,247.6537 175.4072,244.5206 C174.8873,243.8185 174.3608,242.7629 174.0588,241.7010 C173.9053,241.8431 173.7578,241.9791 173.6187,242.1077 C172.4853,243.1558 171.3268,244.1715 170.1740,245.1975 C151.4628,261.8500 127.0534,271.9859 101.8611,271.7645 C77.1656,271.5474 51.9281,261.2387 33.2011,245.3747 C32.0124,244.3678 30.8305,243.3533 29.6270,242.3641 L29.5675,242.3152 L29.1356,241.9002 C28.7484,243.8646 27.8286,245.6683 26.0309,246.7967 C22.8537,248.7910 18.6230,247.6196 15.5118,246.0950 C11.5944,244.1753 7.9242,241.0464 5.1852,237.6695 C3.9954,236.2025 2.9273,234.6254 2.0409,232.9565 C0.5300,230.1122 -0.8063,226.8402 0.5846,223.6787 C1.1229,222.4553 1.9588,221.4500 2.7322,220.3766 L3.2489,219.6596 L4.1273,219.5631 C4.1830,219.5570 4.2386,219.5512 4.2940,219.5459 Z"
       style="fill-rule: evenodd; fill: #000000; "
       id="path1" />
    <path
       d="  M171.4837,211.5790 C172.5270,212.6882 174.5364,214.0152 175.7938,215.0130 C177.2356,216.1570 178.6401,217.1935 180.1465,218.3954 C181.6417,219.5883 183.0637,220.6506 184.4967,221.7801 C185.6074,222.6557 187.7562,224.5391 188.9491,225.0786 C189.7329,223.8869 190.7628,222.5161 191.9775,221.5604 C193.8208,220.1100 194.5617,220.3160 196.5877,219.3087 C196.3901,219.0702 196.4469,219.1041 196.0526,218.7878 C195.7362,218.5340 195.5881,218.4610 195.2318,218.2266 C192.1381,216.1916 179.1872,207.0331 177.5664,206.9582 C174.4147,206.8127 171.6584,208.7654 171.4837,211.5790 Z Z M169.3880,226.2102 C170.0601,227.7200 177.3971,235.8723 178.0132,237.2128 C177.4640,237.8873 175.9587,239.0730 175.8106,239.8069 C175.6193,240.7548 176.4919,242.6463 177.0042,243.3383 C178.5769,245.4626 181.3409,245.6466 184.4543,244.7008 C189.7612,243.0887 193.5570,239.3711 196.3543,236.4166 C204.7409,227.5588 202.1576,217.3667 194.1687,222.0888 C191.9391,223.4067 190.7439,225.0849 189.4575,227.5719 C187.5593,226.7564 178.7219,219.0124 176.5404,217.7612 C175.2781,219.9824 175.0261,220.7457 173.5646,222.4806 C172.2811,224.0044 170.7294,224.7112 169.3880,226.2102 Z Z M27.4537,237.5286 L30.8886,240.8290 C32.1266,241.8464 33.1308,242.7110 34.4855,243.8585 C52.4254,259.0558 77.1493,269.5602 101.8786,269.7775 C127.2068,270.0001 151.0312,259.5741 168.8529,243.7131 C170.5738,242.1817 174.7914,238.5287 175.7585,236.9766 L169.3262,228.9330 C168.0926,227.4488 163.7186,221.6206 162.6123,220.9881 C156.9244,226.5392 157.9948,225.9296 151.1509,231.2748 C138.1568,241.4235 119.6538,247.5782 101.8786,247.4624 C84.3912,247.3485 65.6976,241.1405 52.7673,231.1180 C50.5614,229.4082 48.7826,227.9554 46.7850,226.3263 C45.2405,225.0667 42.2676,221.5321 41.0531,220.9508 C38.5285,224.5173 28.2924,235.4905 27.4537,237.5286 Z Z M14.0272,228.1255 C12.0614,225.3345 9.8703,220.9309 4.3444,221.5382 C2.2962,224.3808 0.5122,225.8430 3.7957,232.0244 C10.0954,243.8840 27.1635,252.1437 27.3780,239.6035 L25.1122,237.5957 C26.9244,235.1307 33.1616,228.2416 33.8098,226.8655 C32.1951,225.5590 30.9393,224.6600 29.6959,223.2529 C27.4379,220.6976 27.1128,219.0604 26.4590,218.4877 L14.0272,228.1255 Z Z M6.9555,219.8608 C7.9592,220.5683 9.7108,220.8220 11.3082,222.0234 C13.1064,223.3760 13.1044,224.2594 14.5798,225.6288 C15.4509,225.2804 17.8223,223.1886 18.8006,222.4182 C20.2974,221.2394 21.6112,220.1851 23.1061,218.9950 L31.5493,212.1311 C31.1252,209.3469 28.9687,207.4225 25.6157,207.5771 C23.7233,207.6644 12.1362,216.2422 9.9702,217.7358 C8.8398,218.5153 8.0397,218.9149 6.9555,219.8608 Z"
       style="fill-rule: evenodd; fill: #fdf400; "
       id="path2" />
    <path
       d="  M98.4662,116.1927 C98.5525,115.9165 98.6931,115.3724 98.7968,115.1487 C99.2651,114.1381 98.8358,114.7426 99.4376,114.3031 C100.7793,114.7380 101.0362,117.3101 101.4296,118.4572 C101.9903,120.0920 102.4081,121.3994 102.9740,123.0512 C103.9184,125.8079 104.7835,129.1369 105.9687,131.9168 L119.0522,131.9434 C124.7518,131.9328 127.7561,131.3221 122.6049,134.8002 L114.1633,140.7163 C112.7555,141.6612 111.2796,142.8787 109.9291,143.5869 C110.4906,146.2936 112.0677,150.0931 112.9616,152.7934 C116.3256,162.9551 117.2461,163.3116 111.4207,159.3020 L103.6406,153.8230 C102.4384,152.9599 100.8900,151.7345 99.7138,151.0905 C99.1629,151.0238 89.3522,158.1899 87.5857,159.4350 C86.9357,159.8931 86.3301,160.3021 85.6407,160.8050 C81.1563,164.0759 84.9798,156.3441 86.2679,152.5904 C87.1444,150.0361 88.6853,146.1755 89.2227,143.6213 C87.9335,142.8837 86.7481,141.8980 85.3242,140.9318 C83.9857,140.0235 82.7761,139.1850 81.4132,138.2144 C80.2465,137.3835 74.1942,133.6655 73.9044,132.3498 L93.1817,131.8957 L98.4662,116.1927 Z Z M79.4048,109.4552 L80.4228,109.7128 C80.3648,110.8567 80.4925,110.0156 80.0636,110.3345 C76.5453,117.2481 69.9508,114.9092 65.7336,114.8752 C64.1680,116.7621 62.3125,121.9568 61.9026,124.8957 C65.2945,123.5750 64.0066,117.5553 73.8296,116.8366 C72.9457,123.8341 68.3656,124.6677 61.7320,126.1573 C60.8286,128.2904 60.8667,133.5443 60.9637,136.0433 C61.5218,135.6712 61.0749,136.0593 61.4822,135.5951 C62.5835,134.3395 62.4461,131.1407 64.1147,128.8002 C64.8506,127.7680 68.3840,124.6736 69.9245,124.8393 C70.4907,129.0305 69.6186,130.3201 67.8531,132.9019 C68.5984,135.5389 69.8765,137.0262 68.6973,140.3619 C68.7468,140.4626 68.7931,140.5708 68.8397,140.6668 C68.8839,140.7581 68.9345,140.8650 68.9785,140.9550 C69.0165,141.0327 69.1958,141.3786 69.2414,141.4584 C70.9576,142.6591 71.7983,146.4249 71.1947,149.1047 C70.5676,151.8891 68.9299,153.7026 67.8951,155.8149 C68.3872,157.3160 72.5394,162.1442 73.4497,162.7396 C73.2050,160.3156 71.4338,158.9340 71.1670,156.1029 C70.9368,153.6597 71.7518,150.6782 72.9164,149.1511 C74.6903,149.9592 76.4658,153.0484 76.5582,155.8080 C76.6833,159.5413 74.9129,161.3637 74.5984,164.1069 C77.3692,166.1770 78.1779,167.6254 82.2245,169.4989 C80.9257,165.8896 76.4424,166.9585 77.1611,156.9480 C79.4825,156.9694 81.8304,159.6450 82.6376,161.2843 C84.0174,164.0863 83.6824,167.0158 83.6771,170.2535 C92.6983,173.9632 109.5288,175.1556 118.4034,170.3739 C118.5482,166.6465 117.5864,158.8639 124.7688,156.9823 C125.9968,165.6292 121.3958,166.5091 119.8740,169.6040 C122.3578,168.7713 125.9600,165.6668 127.3266,164.0967 C126.9141,161.6517 122.3998,153.8182 128.9976,149.2989 C130.1083,150.5709 130.9123,154.3747 130.6985,156.3699 C130.4111,159.0517 128.5939,160.7159 128.5161,162.9056 C129.8798,161.5540 130.9932,160.3228 132.3034,158.5663 C134.4348,155.7088 134.1788,156.5029 132.4527,153.4653 C129.3527,148.0098 130.0339,146.2999 132.4777,141.4101 C132.5330,141.3588 132.6029,141.2852 132.6384,141.2508 C132.6727,141.2173 132.7612,141.1300 132.7955,141.0968 C132.8385,141.0551 133.0251,140.8748 133.0947,140.8146 C132.5023,136.2126 132.6645,137.0791 133.9770,133.1779 C133.9020,131.9694 131.1857,130.7829 131.9148,125.0066 C133.8568,125.0477 136.8950,127.9222 137.6074,128.9958 C138.8236,130.8288 139.1380,135.0793 140.7046,136.1158 C140.7908,133.2018 140.8030,129.2679 140.0717,126.5525 C138.7572,124.7520 129.3028,126.8623 128.0864,117.0034 C137.8139,117.8441 136.3041,123.5210 139.7319,125.1131 C139.5187,122.0046 137.3245,117.4866 136.1429,115.0371 C132.8448,115.0679 130.4315,116.1007 126.9873,115.0266 C124.6027,114.2829 122.4751,112.2290 121.7932,109.9889 C123.9746,108.9169 127.7207,109.3107 129.7502,110.3446 C132.0695,111.5260 132.7236,113.4154 135.4210,113.9792 C134.8517,112.3644 131.9947,108.5140 130.9314,107.5447 C127.7982,107.6909 125.4085,109.3236 121.5980,108.8062 C118.7438,108.4186 116.1214,106.4277 115.3229,104.1745 C118.3150,103.6632 120.2590,102.5755 123.5624,103.8260 C125.7795,104.6653 127.4833,106.7684 130.0390,106.6203 C129.1429,105.3178 126.7350,103.3684 125.1745,102.2143 C121.2765,99.3315 121.9859,99.6507 119.3313,100.0880 C115.1115,100.7831 109.0193,96.1190 106.6338,94.5674 C107.0792,94.0025 107.0614,94.0291 107.9508,93.6507 C111.9157,91.9635 115.1497,93.9591 118.1991,96.2048 C120.2998,97.7518 127.0049,100.5711 127.9853,102.3503 C128.1310,99.6155 122.4936,97.5805 122.7313,89.8919 C124.8498,90.4199 127.7352,93.2188 128.7234,94.8068 C130.6840,97.9578 130.1629,99.8706 129.3206,103.3635 C129.3386,103.3874 134.6104,109.2875 134.6597,109.3186 C134.9032,106.0503 131.1769,101.4802 133.4178,96.8759 C134.9184,97.7504 137.2043,100.3086 137.7526,102.8673 C138.6087,106.8625 136.5132,108.3502 135.5919,110.8171 C136.9360,113.5482 138.5273,116.1976 139.7547,119.1317 L140.3243,120.1609 C141.3874,117.6983 139.1525,110.2678 142.5345,107.6011 C144.0846,109.3153 145.5149,112.4591 144.9771,115.4718 C144.4476,118.4388 142.2581,120.4433 140.8257,121.8595 C140.9179,123.7585 142.1388,127.4636 142.3977,133.6339 C143.7147,132.8600 143.9554,128.1707 144.5216,126.3193 C144.9333,124.9731 145.2685,124.3242 145.9962,123.1124 C146.3014,122.6042 146.6243,122.0884 146.9663,121.6043 C147.5423,120.7889 147.3504,120.8748 148.1193,120.4262 C149.0651,123.7980 149.9049,126.6291 148.1793,129.9852 C146.7737,132.7188 144.7227,133.7966 142.3577,135.4386 C142.0325,139.6950 141.2353,142.1734 140.6492,145.8441 C142.6713,144.6471 143.2205,142.0672 144.7017,139.7578 C145.7909,138.0597 148.0970,135.7084 150.0417,134.8465 C150.8469,142.5970 146.6163,146.0223 140.1419,147.3410 C139.4455,148.9674 138.9475,150.4912 138.1681,152.0077 C137.6570,153.0022 136.1939,155.5073 136.0285,156.2081 C140.4401,154.6332 141.0365,149.7571 148.2343,148.5558 C147.6591,151.8252 146.0080,154.4734 144.1048,155.7273 C140.5010,158.1017 139.4910,157.2100 135.0754,157.5130 C133.9793,158.8393 133.2478,159.9811 132.2293,161.2552 C131.2870,162.4341 129.9403,163.5929 129.3061,164.7185 C132.8349,164.5014 135.6016,159.2706 142.4778,159.2018 C141.0439,163.6731 137.2132,167.3730 130.9922,166.4667 C126.3213,165.7862 128.7041,165.4857 124.8296,168.4904 C123.1803,169.7696 121.1849,170.9199 119.2026,171.9484 C121.8825,172.3588 125.8177,169.2339 131.4718,169.9582 L132.9585,170.4461 C132.1075,171.8683 130.2204,173.5012 128.4706,174.3375 C125.4572,175.7779 121.6421,175.1239 118.8424,173.4180 C117.4258,172.5549 117.8269,172.4740 116.1254,173.0194 C113.9940,173.7025 111.8292,174.1062 109.6907,174.6400 C111.7762,175.6200 117.5574,177.0030 118.3525,179.6936 L117.7659,180.4645 C116.5441,180.1800 115.6509,178.9807 114.3084,178.2239 C106.9489,174.0754 90.4470,174.3170 85.7027,180.7255 C84.7669,180.3516 84.9349,180.3666 84.3548,179.7767 C85.4045,178.1386 90.7840,174.6003 94.0360,174.7455 C91.6924,174.1106 89.2031,173.8427 86.8255,173.0995 C83.2848,171.9929 84.1974,173.1118 80.9217,174.2997 C78.4793,175.1853 75.7442,175.2202 73.3945,174.1104 C71.5584,173.2433 69.4784,171.5309 68.8285,170.1700 C70.4945,169.2417 74.3759,169.6250 76.3142,170.1149 C78.4762,170.6614 80.5125,172.0383 82.8067,171.7828 C81.9587,171.0476 79.3200,169.7896 78.1905,169.0390 C76.6661,168.0259 75.2717,166.8529 74.0214,165.7390 C70.2068,165.9547 68.1265,167.4593 64.2157,165.3374 C62.1992,164.2433 59.9589,161.7637 59.2188,158.9850 C66.9746,159.6233 69.8335,164.7367 72.7728,164.5135 C71.9541,163.9890 69.4467,160.8880 68.6214,159.8256 C65.5209,155.8338 67.8385,157.8360 62.4858,157.3143 C57.2448,156.8034 54.3022,153.2804 53.2622,148.3677 C60.5702,149.5898 61.9918,155.0617 65.7580,155.9947 C65.4488,154.9887 64.0880,152.8681 63.5109,151.6914 C62.8395,150.3221 62.2992,148.6024 61.5688,147.2570 C57.7519,145.7505 56.6302,146.3679 53.9727,143.5496 C51.8622,141.3113 51.2847,138.6409 51.3810,134.7487 C53.1112,135.2481 55.8887,138.0574 56.8825,139.5416 C58.3436,141.7240 58.8009,144.4701 61.0391,145.6801 C60.7122,143.9585 60.2333,142.4748 59.9081,140.6630 C59.5774,138.8196 59.5116,137.0728 59.2559,135.2208 C56.5371,133.4927 54.6436,132.4116 53.2554,129.6329 C52.0189,127.1576 52.0074,122.3652 53.5780,120.2989 C58.0219,123.7723 57.3401,132.5188 59.2706,133.4201 C59.3695,128.6778 60.0900,126.1479 60.9040,121.8595 C59.2614,119.6566 52.7787,114.6500 59.1033,107.4555 C59.8357,108.0893 60.1144,109.0967 60.4488,109.9909 C61.9297,113.9519 60.3852,117.1355 61.3721,120.2011 C62.1003,119.0712 62.8787,116.5931 63.6596,115.0922 C64.3392,113.7863 65.8405,111.5277 66.2029,110.5410 C65.0213,108.3752 63.1883,106.3092 63.9705,102.6885 C64.5107,100.1879 66.9051,97.4247 68.5308,96.6540 C69.7719,105.7778 66.9405,104.8367 67.1133,109.1754 C68.0596,108.3427 68.7056,107.3003 69.7144,106.2437 C74.9435,100.7669 71.2790,104.4542 71.8521,98.4142 C72.2308,94.4229 75.4314,91.0022 79.3136,89.6576 C79.2867,97.9815 74.4486,98.3724 73.9305,101.9884 C75.9583,101.1741 78.5007,98.6443 81.6649,97.4844 C84.2215,96.5472 85.7508,93.9897 89.1234,93.0800 C91.3668,92.4749 94.3335,92.9586 95.6313,94.2535 C94.0767,95.9945 86.6347,100.4263 82.9234,99.9408 C80.7787,99.6603 81.5561,98.8878 79.4650,100.2447 C76.9372,101.8850 73.4482,103.8640 71.9106,106.5126 C75.0323,106.2704 76.1781,104.3520 78.8532,103.5086 C81.2964,102.7385 84.8216,103.0218 86.7929,104.1916 C84.8765,108.7312 79.2188,109.1363 74.9854,108.1964 C71.1305,107.3405 71.5133,106.4727 69.4667,109.0254 C68.5561,110.1611 66.7870,112.4104 66.3163,113.8146 C68.7450,113.4070 69.8361,111.4062 71.8611,110.3150 C74.2349,109.0356 76.4946,109.3297 79.4048,109.4552 Z Z M95.3340,83.3752 C67.2947,85.2021 43.7451,108.4446 45.6883,138.6907 C47.4675,166.3822 72.2214,188.8517 102.4741,186.9187 C130.0967,185.1539 154.0549,161.5712 151.8497,131.6147 C149.8145,103.9679 125.5671,81.4054 95.3340,83.3752 Z"
       style="fill-rule: evenodd; fill: #fefefe; "
       id="path3" />
    <path
       d="  M90.3209,199.8549 C96.0149,199.9798 93.4897,203.6469 94.3972,206.9913 C94.8603,208.6977 95.6073,209.3453 94.0222,210.8638 C88.9544,215.7186 83.5938,210.6153 81.5746,211.1079 C80.5651,211.3541 79.7046,213.0601 78.6123,213.6826 C76.9210,214.6464 75.9227,213.4889 74.2468,213.2710 C73.3138,214.3993 73.0350,215.9316 70.9846,215.9969 C67.1421,216.1190 69.8099,215.7401 66.9964,218.0891 C64.8295,219.8983 59.8798,219.8398 56.5836,219.0332 C51.3358,217.7491 54.2256,213.6934 55.3273,206.1040 C55.7465,203.2164 57.5270,204.8098 57.3323,201.9917 C56.9219,196.0508 59.7980,199.1885 63.6352,196.5023 C67.5806,193.7403 69.5396,195.0310 71.9582,197.6307 C74.4944,200.3569 75.2318,197.4940 81.6660,200.0718 C83.2640,200.7121 84.5189,201.1899 86.1751,201.6255 C86.8913,201.8139 88.1261,202.1009 88.9283,201.9385 C90.3059,201.6596 89.6786,200.8210 90.3209,199.8549 Z Z M42.4841,161.8882 C43.7482,164.4775 42.2152,165.0419 42.8306,168.2016 C43.6449,172.3830 46.9586,174.2567 50.7876,175.1178 C52.5462,175.5133 54.5099,177.1091 55.4156,177.9980 C58.4336,180.9601 60.7960,183.1520 56.9031,187.2901 C53.4458,190.9649 56.4801,195.8271 56.1900,199.8202 C54.5019,200.2537 52.8295,199.4933 50.5089,200.2117 C48.0468,200.9739 48.3411,202.3878 45.4988,201.1474 C43.8020,200.4070 39.3402,203.6193 38.3632,200.5899 L37.4476,197.6846 C38.5714,197.2650 42.0304,197.2037 42.8333,196.4225 C43.4232,195.8486 42.5659,196.2313 44.4587,194.4589 C45.3305,193.6425 45.4042,193.0395 45.3228,191.6222 C44.1921,190.9241 43.0384,190.8211 41.6046,190.1264 C40.3181,189.5032 39.4754,189.0055 38.3104,188.1880 C36.3877,186.8387 36.7722,187.4503 36.4275,184.8105 C35.9570,181.2078 30.3689,180.3222 28.4866,177.0072 C26.2023,172.9845 32.8273,175.3165 33.6708,172.3270 C34.9483,167.7998 28.9244,157.3662 33.4854,155.0450 C34.2546,154.6536 42.1301,154.2491 43.1249,154.6813 C44.5570,155.3035 44.7110,156.7412 44.2927,158.4047 C43.8611,160.1212 43.1845,160.8038 42.4841,161.8882 Z Z M24.9885,166.2490 C25.8960,183.8013 31.9397,201.2871 42.8030,213.5130 C57.9402,230.5490 78.7949,239.9214 103.3713,239.6644 L103.3731,189.0143 C80.6012,190.1581 62.3773,180.3679 51.4537,163.1835 C46.8723,155.9762 46.3365,152.0613 44.1865,144.5192 L24.9207,144.5284 L24.9885,166.2490 Z"
       style="fill-rule: evenodd; fill: #fdf400; "
       id="path4" />
    <path
       d="  M118.2739,188.4691 C121.2269,188.3171 120.8655,188.3435 122.2322,186.3974 C123.2205,186.5652 150.1149,196.7415 153.5622,198.3477 C154.1972,198.6436 153.9475,198.4515 154.4940,198.9660 L151.9744,200.5366 C153.0168,201.3040 153.9845,200.9497 154.4310,202.1930 C153.2675,203.5257 152.7403,202.5726 149.1938,206.5778 L154.3645,206.6415 C153.9658,208.4681 152.1901,212.6966 151.0497,213.6800 C151.2533,214.5585 151.2225,213.9364 151.5089,214.4627 C151.9186,215.2155 151.8212,214.9440 151.8245,216.5445 L146.8098,216.5823 C146.8098,213.7259 146.8641,213.3097 143.8767,213.0564 C141.3405,212.8414 140.1910,213.0772 139.2643,214.6294 L144.3232,214.7736 L144.3515,216.4704 L133.0479,216.5748 C133.0479,216.0067 132.9447,215.4700 133.2020,215.0263 C133.6763,214.2082 133.3009,215.0753 134.3018,214.2703 C132.5787,212.8115 130.3698,209.9432 129.9509,206.8860 C131.6483,206.1325 130.7598,207.3919 131.7067,205.1815 C132.0821,204.3052 132.5236,203.5671 133.0292,202.9068 C134.5016,200.9837 135.2051,201.4086 137.2615,200.2711 C136.3012,199.6703 135.5230,198.9242 133.9839,198.8080 C126.4804,198.2416 130.9247,199.4731 128.0562,196.2831 L122.0967,196.1242 C119.5942,190.8605 122.0568,189.7638 119.2913,189.5130 L119.2583,197.2557 C118.0935,197.4028 116.7261,197.4506 115.8035,196.9478 C116.1649,196.1461 115.7984,196.2490 118.1210,196.2013 L118.2739,188.4691 Z Z M104.5720,206.9199 L106.0684,206.8617 C107.6736,202.7281 109.9425,199.8119 114.8385,200.6848 C115.4484,200.7936 116.0457,200.9836 116.6866,201.2275 C117.7416,201.6292 118.0491,201.7832 118.3690,202.4690 L118.0440,202.7762 C117.0531,203.5067 116.8278,203.2848 115.5405,204.4814 C114.8755,205.0995 113.8885,206.3446 113.1326,206.7354 L117.0368,206.8154 C118.3054,204.0661 118.9166,202.3580 121.3019,201.1294 C123.1524,200.1762 128.0730,200.2056 129.4173,202.1930 C128.7513,203.5167 128.6866,202.5072 126.7825,204.1211 C125.8750,204.8904 125.0309,205.6382 124.3738,206.7547 L129.1995,206.7321 C129.2969,208.7568 126.6148,213.0065 125.8253,214.4351 C126.7615,214.8251 126.8336,214.1353 126.7489,216.7190 L121.8679,216.7492 C121.5222,214.0804 122.1542,213.5511 119.0510,213.2390 C115.8727,212.9194 115.3378,213.3448 114.1983,214.7545 L119.2969,214.8509 L119.2844,216.7096 L108.0986,216.7461 C107.9139,214.0488 108.2018,215.1273 109.3010,214.6531 C103.9867,207.8486 106.4425,210.1648 104.9977,207.8967 C104.7327,207.4805 104.8624,207.6503 104.5641,207.3668 L104.7042,239.5396 C109.5185,240.0127 119.2734,237.9853 123.8095,236.7446 C159.3916,227.0120 178.1095,196.2978 178.1155,160.2322 C178.1162,156.1139 178.3163,141.3815 178.0525,138.4657 L154.0538,138.6046 C153.7219,141.0988 153.5529,143.2568 153.0745,145.6589 C152.6352,147.8643 151.8437,149.9532 151.5130,152.0516 L165.5024,152.0500 L165.4541,156.8791 L163.5331,156.9241 L164.1357,163.9703 C164.3040,166.4720 164.6323,169.1177 164.9140,171.5753 L165.8952,182.4147 C165.9979,183.6514 166.1501,184.7980 166.2207,186.0152 L170.0860,186.0664 L170.0348,189.9244 C167.0948,190.1920 134.9829,190.2338 133.8591,189.8924 L133.8982,179.3534 L146.7939,179.4619 L146.8031,186.0391 L150.8223,185.9031 C151.0128,185.2855 152.6963,160.1764 152.5939,156.8899 L150.5195,156.8778 L150.3287,155.0274 C147.7814,160.0559 146.2527,163.4960 143.0286,167.6267 C135.5219,177.2443 125.2144,184.1838 113.0448,187.3705 C110.2801,188.0945 107.5572,188.3366 104.7097,188.9375 L104.5720,206.9199 Z"
       style="fill-rule: evenodd; fill: #449284; "
       id="path5" />
    <path
       d="  M40.5052,57.8135 C39.8300,57.1497 39.1594,57.0356 38.3463,56.1937 C36.9378,54.7352 34.2197,48.3435 38.3622,51.2021 C49.5701,58.9364 54.6814,49.6503 57.5891,47.1859 C60.1240,45.0374 60.9974,47.6545 62.9715,46.7768 C64.9646,45.8908 64.2130,43.4874 67.0567,44.4368 L67.0353,46.4951 C67.8471,46.9397 67.7977,46.6811 68.4693,47.2678 C68.4881,50.0701 64.9237,51.6934 64.1291,53.8237 C70.9730,54.0650 74.4073,55.3597 77.8891,58.8848 C84.9343,57.6082 88.8524,43.2366 93.5821,53.3986 C94.7353,52.9759 96.4593,51.5690 97.6896,52.9251 C98.6385,53.9709 98.4851,56.2244 98.2938,57.7853 C97.8981,61.0144 96.7300,63.7940 96.4600,66.9794 C95.6782,76.2047 91.8372,73.0533 88.3979,75.4994 C86.9095,76.5579 87.1396,77.7684 86.1770,78.6916 C84.1995,77.9342 85.5128,76.3672 84.6110,75.0915 C83.9748,74.1913 82.3153,74.0527 83.0521,72.1229 C84.2316,69.0332 86.4712,70.9346 85.9326,65.1817 C80.1065,68.5748 75.1798,85.9266 63.0160,90.7165 C56.6665,93.2168 61.9134,90.3385 57.0238,95.4879 C53.1514,99.5660 46.5764,100.8900 42.8532,103.6908 C40.9108,105.1519 37.1423,114.7622 35.3121,118.2394 C34.6246,119.5456 33.3183,121.9547 32.0829,122.4824 C29.9794,123.3809 28.7890,121.0021 28.3583,119.3749 C29.4449,117.6737 30.1345,118.0616 29.1245,115.3853 C28.6741,114.1922 27.8693,112.6117 28.2964,111.2421 C28.9590,109.1172 33.3517,108.8204 35.0542,107.2283 C35.3184,105.5897 34.8190,103.4736 35.6352,102.1127 C36.0258,101.5610 36.6249,101.4786 37.3291,101.1978 C38.9810,100.5389 40.0254,99.6167 40.9633,98.2090 C42.4348,96.0000 42.4986,93.3051 42.2782,90.3520 C37.4970,91.8127 39.3602,92.6909 32.5329,90.7189 C33.3566,89.2315 35.2039,87.5998 36.8255,86.6196 C39.5075,84.9984 40.4734,85.5948 43.4592,85.7886 C45.1533,83.2441 52.2681,79.3110 55.6856,77.3123 C59.0863,75.3234 64.8641,71.0425 65.2893,66.0953 C63.4402,63.9091 59.4022,63.2741 56.9997,60.1919 C55.8612,58.7314 55.9763,58.0924 55.1493,57.4603 L50.8384,63.0817 C45.2716,70.8737 45.3043,79.0889 36.6148,77.4962 C36.5627,75.6796 40.3704,75.1475 41.1569,72.4053 C37.5684,72.7336 36.3249,72.7368 34.5371,74.9474 C33.0827,76.7460 31.9703,77.7941 28.4870,77.6410 C28.0385,74.1477 31.4625,74.1233 32.3903,71.6165 C31.7794,70.9450 27.0822,67.1246 28.4381,63.9532 C30.1499,63.6758 29.5863,65.1897 33.3570,67.5236 C34.7616,68.3929 38.8082,68.5744 40.5533,67.9903 C44.0557,66.8179 46.5850,62.2007 48.3330,58.9161 C43.3420,59.6318 43.0174,68.2675 38.2572,67.0399 C37.3082,64.5877 38.7213,64.3786 39.1927,62.2761 C35.8169,63.4938 34.7913,63.6041 31.7657,60.5668 C31.1621,59.9608 30.3725,59.5715 30.1769,58.7705 C33.3491,58.3051 38.3966,59.5141 40.5052,57.8135 Z Z M24.8534,127.8112 L43.8022,127.8176 C44.4904,125.8158 44.7797,122.2109 46.3810,117.7006 C47.5164,114.5023 48.8649,111.5162 50.4404,108.7855 C52.0187,106.0500 53.7890,103.4510 55.6502,101.2931 C61.9366,94.0044 68.4209,88.8968 78.0499,85.0410 C84.7446,82.3602 91.9056,81.1922 99.8324,81.1019 L99.8315,43.2074 C81.1538,42.9481 62.3321,43.0900 43.6326,43.0671 C37.4193,43.0595 31.0779,42.9632 24.8572,43.0819 L24.8534,127.8112 Z"
       style="fill-rule: evenodd; fill: #449284; "
       id="path6" />
    <path
       d="  M138.7743,97.9474 L139.2853,98.3361 C142.0121,100.9518 139.4497,100.4289 146.6784,100.5511 C149.7281,100.6027 154.4226,100.4004 157.2650,100.7904 L157.3242,102.1567 C155.0412,102.7545 145.9951,102.0088 142.7988,102.1425 C143.2899,103.4175 145.0589,105.2841 145.9141,106.9153 C146.4328,105.9731 145.3936,106.0690 148.8860,106.2265 C149.8463,106.2698 151.6419,105.9651 152.1737,106.6761 C151.8587,107.7261 152.7644,107.2254 151.1286,107.4170 C150.5437,107.4855 147.8090,107.0581 146.2621,107.3505 C148.8303,111.2570 151.1926,117.0815 152.4457,121.8882 C152.9400,123.7845 153.1685,125.9981 153.7217,127.8037 L178.0136,127.8170 C178.6964,123.6164 177.6209,46.1221 178.2784,43.1518 L149.8111,43.0893 C149.8601,43.1580 149.9321,43.2343 149.9685,43.2876 C151.2542,45.1732 150.1002,45.2029 150.9394,46.1071 C151.9334,47.1016 152.2542,46.0274 153.2168,47.1789 C153.6243,47.6898 153.9388,49.8498 153.4533,50.5082 C152.5949,51.6721 151.9365,50.8290 152.0134,53.3985 C154.2459,53.0828 155.5195,50.1633 156.5598,55.7020 C159.0212,55.3368 157.9300,54.6288 159.1102,53.7676 C161.7471,54.8503 160.7774,56.7907 159.3905,58.3657 L159.9567,58.6462 C160.7913,59.0127 161.3827,58.9277 161.4899,60.6066 C161.6193,62.6315 160.8444,63.4055 162.7050,63.8989 C164.1488,64.2818 163.6317,63.6555 164.3569,66.6623 C164.8114,68.5467 165.6545,68.0437 165.3945,69.6240 C163.3615,70.1309 163.0884,69.1581 161.8233,70.4553 C160.3731,71.9423 159.4496,72.8808 158.8366,70.4980 C158.7437,70.1371 158.8168,70.2378 158.6645,69.8298 C158.4786,69.3316 158.6364,69.5980 158.3417,69.3073 C157.0166,69.1446 157.3773,70.4142 156.9893,71.6690 C154.9419,71.5957 155.7832,70.5592 154.1571,69.4859 C153.6881,70.4170 153.9951,70.7004 153.0324,71.4765 C151.8209,71.2906 151.6637,70.8567 151.2158,70.1224 L149.9935,68.4568 C148.7263,68.9367 147.8355,69.8675 147.0673,70.6268 C145.7532,71.9257 145.7144,71.4056 143.9876,72.1687 C143.8956,75.8866 145.1671,93.1960 146.2462,96.0802 L161.8988,96.4346 C163.7581,96.4534 163.7090,96.5111 163.6089,98.0892 L144.7445,97.6786 C143.6105,97.6563 139.5557,97.2563 138.7743,97.9474 Z"
       style="fill-rule: evenodd; fill: #fdf400; "
       id="path7" />
    <path
       d="  M137.9837,97.2686 L138.9682,95.7079 C139.2219,95.0924 139.1497,94.2292 139.1600,93.4313 C139.2240,88.4931 141.4847,73.3425 141.1949,71.9225 C140.6583,69.2921 138.3758,70.4175 135.3516,68.2424 C134.3356,68.5449 133.6729,69.2841 132.3201,69.2074 C130.6989,69.1155 130.9152,68.2972 129.2111,68.2860 C127.6299,70.1836 126.6262,73.0347 124.4452,71.4833 C123.6122,70.8909 121.4509,66.7455 121.7283,65.6938 C122.0533,64.4614 123.0337,64.9079 123.5359,63.1470 C123.8982,61.8767 123.7261,60.4127 124.0256,59.2161 C124.8864,55.7759 127.9989,59.5773 128.5434,55.2313 C128.9497,51.9882 129.6292,51.1107 132.1374,49.9070 C135.2963,48.3909 134.4639,47.8793 136.6029,45.8129 C140.3155,42.2262 142.3519,47.5424 146.5987,44.7575 L148.7155,43.5023 C149.4724,43.0577 148.9442,43.4013 149.3244,43.0691 L109.3844,43.1374 L101.1712,43.2139 L101.1650,81.1107 C109.9203,82.3202 113.9483,82.3025 122.5480,86.3613 C128.0293,88.9483 130.2590,90.6322 134.7131,94.0643 L137.7343,96.8155 C138.0669,97.2665 137.8362,96.8382 137.9837,97.2686 Z"
       style="fill-rule: evenodd; fill: #fdf400; "
       id="path8" />
    <path
       d="  M91.3282,62.2027 C90.7520,64.9969 91.2501,67.4542 88.8534,68.7721 C87.2060,69.6781 87.1208,69.0400 85.8625,70.4724 C82.7837,73.9770 83.8845,72.4235 85.4260,74.2948 C86.0064,74.9995 85.8239,75.4666 86.1770,76.2267 C87.1893,75.2447 86.9730,74.9735 88.5074,74.2202 C91.1398,72.9279 94.9991,73.5663 95.2997,68.3151 C95.5724,63.5505 96.8262,61.4177 97.2623,57.2522 C97.3647,56.2733 97.6140,54.1272 96.7295,53.5805 C94.4065,52.9088 93.7597,55.6269 92.9494,56.5740 C91.5498,58.2102 84.5165,60.2430 81.2393,62.8155 C80.2851,63.5646 80.1687,64.0704 78.9942,64.1250 C77.6856,62.4888 78.7943,61.4464 76.9455,59.5900 C72.6674,55.2944 68.7836,54.8884 62.2090,54.9417 C62.2853,53.6948 65.0071,50.8437 65.9984,49.7976 C66.6095,49.1528 66.7226,48.8240 67.3439,48.1969 C66.8300,47.7392 66.4424,48.0817 65.7423,47.5888 L66.0953,45.2998 C65.3827,45.6992 65.2279,46.1076 64.6146,46.7625 C61.8046,49.7631 60.8032,46.6886 58.8647,47.6202 C56.7527,48.6351 53.3192,56.1878 45.1220,55.1480 C41.5266,54.6920 40.0831,53.2027 37.5216,52.0528 C37.8255,55.5546 40.0132,56.3186 43.0165,57.2935 C40.2995,60.4137 37.3138,59.6332 32.5680,59.6589 C35.0947,64.0349 38.8235,60.7197 39.9259,60.9451 C41.1953,63.1272 39.1132,63.8380 38.9924,66.0099 C42.2468,65.6536 42.6658,60.5198 46.2307,58.4776 C46.9354,58.0739 48.3026,57.5869 49.1552,57.6534 L49.7538,57.8115 C49.7835,57.7527 49.8809,57.8563 49.9360,57.8939 C50.6556,58.9103 49.3537,59.4370 48.5810,60.5532 C46.7033,63.2657 45.6991,66.3341 42.8596,68.0904 C39.4566,70.1954 38.7897,68.9375 35.4146,69.2435 C33.7693,69.3926 33.8734,69.1566 32.4095,68.2028 C31.4670,67.5888 30.5671,66.6732 29.7621,66.2827 C30.3100,69.3787 32.7095,69.8172 33.7597,71.3405 C32.8222,74.2583 30.2444,74.5421 29.5747,76.5519 C33.4271,76.2274 32.8442,74.3621 35.0953,72.7504 C36.3471,71.8541 40.7192,71.2280 42.6147,70.7316 C42.1777,75.2048 40.0772,75.0400 38.8507,76.6660 C43.8314,76.4736 45.5333,69.9073 47.6882,66.0075 C49.0806,63.4877 54.2707,56.2967 56.0778,55.2886 C56.9993,60.6916 60.1249,61.2562 63.9903,63.6972 C66.3964,65.2167 67.0717,65.4372 65.7843,68.6259 C63.5755,74.0970 57.9865,77.1318 53.0235,80.1776 C50.0697,81.9904 45.1030,84.8062 43.6376,87.0501 C41.3538,86.7616 40.6048,86.0597 38.1537,87.1221 C36.5998,87.7956 34.9900,89.0528 34.4594,90.1125 C37.7151,91.9397 40.7480,89.8800 42.8038,88.2843 C44.2017,90.0996 43.3951,95.7397 42.4359,97.7487 C41.5223,99.6621 40.2961,101.0028 38.3305,101.9307 C38.0238,102.0754 37.5621,102.2389 37.3646,102.3442 C36.2591,102.9335 37.0301,102.3295 36.5375,102.9939 C35.6862,104.1977 37.9757,111.6956 29.5584,119.3098 C29.8585,120.5645 30.1192,121.0555 31.2008,121.6039 C33.8348,120.6790 38.0683,110.0235 39.4029,107.1332 C42.6860,100.0233 44.2788,102.3839 52.3198,97.6907 C58.3769,94.1553 57.7893,91.2120 60.0527,90.4929 C68.0500,87.9526 71.3917,83.9572 76.0252,76.6556 C78.4589,72.8206 85.0144,61.3574 90.4299,61.2529 L91.5621,61.1069 L91.3282,62.2027 Z Z M30.5206,116.4562 C32.4948,115.3743 34.1928,111.4711 34.7230,108.9532 C33.0357,109.2743 30.4056,110.4520 29.3558,111.4080 C29.1180,113.3982 30.1698,114.6768 30.5206,116.4562 Z"
       style="fill-rule: evenodd; fill: #c2c1c1; "
       id="path9" />
    <path
       d="  M93.9987,132.9375 L75.8697,132.9303 C77.3464,134.7010 88.3044,141.2370 90.3499,143.3922 L84.8574,159.8974 C85.9323,159.5890 90.9059,155.8670 92.2001,154.9362 C93.6285,153.9089 98.5421,150.2123 99.7608,149.8049 L106.9469,154.9360 C108.0880,155.7563 113.8475,159.6303 114.1802,160.0527 C114.1898,157.6265 109.5174,147.0213 108.8011,143.3922 C110.3032,141.8084 122.1094,134.3621 123.2966,132.9407 L105.1519,132.9609 L99.6777,116.3414 C98.9311,117.2147 94.4938,130.8690 93.9987,132.9375 Z"
       style="fill-rule: evenodd; fill: #fdf400; "
       id="path10" />
    <path
       d="  M151.3772,54.4872 C150.2864,52.1327 151.0885,51.0566 152.5176,49.8052 L152.3432,47.7359 C149.6835,47.2690 149.5996,47.2478 149.5274,44.5000 C146.2509,45.3299 146.7972,47.5496 141.9031,46.2969 C134.9318,44.5125 139.1780,47.7101 132.3747,50.9766 C128.3305,52.9184 130.5143,55.4781 128.9811,57.5204 C127.9904,58.8400 126.5600,58.2524 125.4015,58.9275 C124.7129,59.9473 124.9467,61.7778 124.6541,63.1515 C124.2883,64.8686 123.3082,65.0728 122.7530,66.0953 C124.0389,68.9180 124.1503,70.6147 126.0732,70.7996 C126.8282,69.9661 127.8971,67.4701 129.3283,67.1992 C131.3527,66.8159 131.7596,69.4650 134.3971,67.3500 C134.8539,65.7107 134.2587,63.4629 136.4502,63.5056 C138.0561,63.5370 138.2613,65.3976 139.1972,66.3037 C140.1703,65.7860 141.0586,64.3462 142.5345,64.1455 C143.0466,64.9123 142.7265,64.5592 142.9756,65.3564 L143.4418,66.4955 C143.6541,65.5059 143.5124,65.2562 144.4683,64.6510 C145.7324,65.1351 144.8884,64.7974 145.4733,65.6450 C146.6058,67.2862 146.7009,65.5301 147.5340,67.1829 L148.0597,68.3209 C150.7907,66.8112 149.9666,66.4678 152.5675,70.1280 C153.8639,68.3393 153.5435,67.2359 156.0713,69.7098 C157.8097,67.5623 159.1333,67.1256 160.0352,70.6712 C161.2419,69.4096 161.3131,68.7036 163.8507,68.6686 C163.5320,67.6485 163.2379,66.4400 162.9239,65.2672 C161.6766,64.5685 160.9373,65.0640 160.5478,63.5502 C160.2255,62.2976 160.6932,60.9504 160.1720,60.1092 C159.3720,59.2133 158.8561,60.3980 157.2909,59.9002 C157.0780,58.1335 159.6025,57.6905 159.6121,55.3795 C154.8198,58.4412 156.1064,55.8986 154.8607,53.5231 C153.2324,53.6695 153.2213,54.8191 151.3772,54.4872 Z"
       style="fill-rule: evenodd; fill: #449284; "
       id="path11" />
    <path
       d="  M5.1753,41.6920 L36.3426,41.6902 C32.4154,33.8639 33.1973,36.9373 29.1780,32.7802 C25.8143,29.3010 24.8026,27.0224 25.2611,20.5664 L5.2086,20.5648 L5.1753,41.6920 Z"
       style="fill-rule: evenodd; fill: #d9251d; "
       id="path12" />
    <path
       d="  M131.4840,41.6920 L162.3939,41.6918 C162.1622,40.1741 159.2413,35.8701 158.3752,34.8100 C156.2722,32.2359 152.2548,33.6464 150.5534,31.5839 C149.5123,30.3219 149.8835,28.5919 149.1721,27.4364 C148.1161,25.7210 141.5545,26.9266 139.5473,20.5709 L130.5231,20.5647 C130.7304,24.1733 130.5686,24.7053 128.5795,26.7514 C127.4708,27.8920 125.2004,29.5194 125.1861,31.5710 C125.1642,34.7193 127.7062,33.3564 128.1369,36.8341 C128.3662,38.6854 128.6980,38.5306 129.6877,39.4587 C130.5059,40.2262 130.7005,41.4182 131.4840,41.6920 Z"
       style="fill-rule: evenodd; fill: #d9251d; "
       id="path13" />
    <path
       d="  M44.5991,183.4209 C44.1858,182.6686 43.4483,181.6772 42.2046,181.5272 C40.0594,181.2686 40.1662,182.8297 39.4203,180.3319 C43.3902,179.0988 47.7339,181.6468 45.6740,185.0772 C46.1469,185.5267 46.6444,185.6435 46.8859,186.2997 C47.2866,187.3890 46.6309,188.7060 45.6674,188.1522 L45.3653,187.8267 C44.5401,186.7122 45.5355,188.0921 45.1781,187.3940 C45.1442,187.3279 45.1326,187.2456 45.0992,187.1816 C44.7035,186.4245 44.0189,186.2275 43.8826,185.9054 C43.7025,184.1820 44.2196,184.6924 44.5991,183.4209 Z Z M29.8861,175.7931 C30.2395,177.5536 34.6096,179.7740 36.3175,181.3414 C39.8658,184.5978 35.2833,185.0073 41.5256,188.2844 C44.2048,189.6909 48.7959,189.8740 46.4708,194.5428 C45.8911,195.7068 45.7844,195.2932 45.0133,196.1181 C43.0283,198.2418 45.4629,197.6426 41.3046,198.5376 C39.9977,198.8189 39.8132,198.9454 39.9017,200.1269 C41.8571,200.5648 41.9353,200.0494 43.4247,199.5107 C45.7001,198.6878 45.8218,199.8530 46.9789,199.9352 C48.2630,200.0264 48.2451,198.4588 54.2364,198.1467 C54.4996,193.6870 52.0472,190.0518 55.6517,186.3214 C56.7041,185.2325 58.1074,183.6576 56.6133,181.7744 C50.2830,173.7955 47.2023,177.9214 43.3690,172.9192 C41.3161,170.2402 40.7294,167.7177 41.2780,164.4790 C41.6417,162.3318 40.9784,163.5421 40.5529,161.6121 C41.1799,160.2899 42.0910,160.4013 42.6957,158.1599 C43.4336,155.4247 41.7161,155.8490 39.4938,156.1212 C35.0191,156.6691 32.5518,154.9292 33.5916,160.8790 C34.9635,168.7288 38.6491,175.0413 29.8861,175.7931 Z"
       style="fill-rule: evenodd; fill: #449284; "
       id="path14" />
    <path
       d="  M58.9290,199.8026 C58.6526,201.4313 59.3475,203.3031 58.4171,204.5524 C56.9353,206.5419 57.2597,204.2312 56.7696,208.1362 C56.5124,210.1856 54.4781,215.1401 55.2755,216.5079 C56.1440,217.9976 62.3319,218.1431 64.1810,217.7451 C65.6070,217.4383 66.4137,216.4538 67.2408,215.5753 C68.8844,213.8299 68.3519,214.4239 71.2588,214.3776 C72.9951,213.0399 72.6842,210.8939 76.0238,212.0750 C79.0201,213.1346 78.5591,210.1991 81.0693,209.5099 C83.2643,208.9073 85.6546,210.9034 87.3263,211.3190 C89.8433,211.9446 92.3657,210.4074 93.3169,209.0944 C93.1986,207.7960 92.6306,207.2762 92.6389,205.5213 C92.6468,203.8411 92.9455,202.7238 92.0930,201.6363 C89.5884,202.2375 92.6416,206.0064 79.8268,201.0891 C77.4269,200.1682 77.0428,200.7243 74.5615,200.5408 C70.2793,200.2240 70.0856,196.3353 67.1362,196.6024 C65.6993,196.7326 64.5645,197.9360 63.4785,198.5598 C62.0047,199.4062 60.4351,199.1405 58.9290,199.8026 Z"
       style="fill-rule: evenodd; fill: #449284; "
       id="path15" />
    <path
       d="  M42.2931,41.6831 L65.2995,41.6879 C66.4636,40.4231 66.8465,38.4118 67.9493,37.3905 C69.4019,36.0456 71.0290,36.1352 71.3108,33.5284 C72.1383,25.8746 73.8309,27.0797 77.6854,25.8750 C77.9873,23.3893 76.5109,22.1194 75.1264,20.6243 L57.1695,20.5631 C56.1551,20.8024 56.6944,22.8457 54.2227,26.4349 C51.3118,30.6617 43.5983,36.8299 42.2931,41.6831 Z"
       style="fill-rule: evenodd; fill: #d9251d; "
       id="path16" />
    <path
       d="  M164.4516,41.6860 L170.0208,41.6823 C171.0101,35.1323 171.6827,38.6099 175.3397,35.9927 C175.6414,34.2105 175.2125,32.7708 175.3420,31.0200 C175.5060,28.8009 176.3138,28.9809 177.6323,28.0139 C180.8396,25.6616 179.0737,24.4381 178.3993,20.6184 L141.3226,20.5640 C141.9974,23.1853 145.0478,24.3277 148.0132,25.0213 C153.0612,26.2022 149.5609,30.1895 152.9419,31.1169 C160.6414,33.2289 157.9492,30.8145 164.4516,41.6860 Z"
       style="fill-rule: evenodd; fill: #d9251d; "
       id="path17" />
    <path
       d="  M172.0619,38.9762 L171.6667,41.5750 L195.7252,41.6930 L195.8261,20.6213 L180.0915,20.5646 C180.2998,22.4249 181.7086,24.6500 181.0657,26.4734 C180.4187,28.3083 177.7205,29.7746 177.4530,30.0448 C176.1128,31.3983 177.5756,34.7677 176.8020,36.5766 C176.2044,37.9739 173.8299,38.4510 172.0619,38.9762 Z"
       style="fill-rule: evenodd; fill: #d9251d; "
       id="path18" />
    <path
       d="  M39.2124,41.5807 C42.0469,41.1148 42.1890,36.3268 47.5002,31.5902 C49.5718,29.7427 54.4208,24.8228 54.9977,20.5664 C49.8386,20.5571 32.8524,20.2875 28.1246,20.5338 C27.2843,20.5776 26.7458,19.9145 26.6318,23.0196 C26.3392,30.9970 33.2200,32.6188 35.7870,37.2195 C36.7451,38.9367 37.3331,41.0062 39.2124,41.5807 Z"
       style="fill-rule: evenodd; fill: #d9251d; "
       id="path19" />
    <path
       d="  M109.8080,41.6534 L129.1816,41.6926 C128.9042,40.5152 128.1309,40.5201 127.3776,39.5477 C126.3939,38.2778 126.9075,37.7762 126.4020,36.3791 C125.9263,35.0643 123.1835,34.8625 123.6132,30.8593 C124.0354,26.9263 130.0681,25.6863 128.9797,21.3942 C128.7258,20.3928 128.7007,20.5649 127.6163,20.5649 L106.8536,20.5868 C107.5671,21.7175 108.5037,22.2069 109.3171,23.9234 C110.3793,26.1651 109.1503,37.0607 109.8080,41.6534 Z"
       style="fill-rule: evenodd; fill: #d9251d; "
       id="path20" />
    <path
       d="  M5.1822,19.2364 L195.8083,19.2356 L195.8284,17.4658 L194.7495,17.3588 L5.2321,17.3767 L5.1822,19.2364 Z"
       style="fill-rule: evenodd; fill: #d9251d; "
       id="path21" />
    <path
       d="  M32.2532,12.8157 C31.2720,13.8104 31.4879,12.9980 30.8187,14.0810 C30.6975,14.2771 30.1612,15.7709 30.0929,16.0438 L73.8400,16.0444 C73.9171,13.3756 74.0646,12.0815 74.7312,9.8698 C72.9331,9.2213 72.2663,9.7691 70.4655,9.6668 C69.0059,9.5839 67.7965,9.0533 66.2862,8.8814 C64.8026,8.7127 63.2574,8.7330 61.7961,8.4946 C60.0604,8.2113 59.1417,7.5736 57.7875,7.2872 L57.7735,14.7128 L40.9248,14.7198 L40.8694,2.0776 L34.7166,2.0180 C34.9798,3.9626 34.2284,6.0852 33.1967,7.0856 C31.5805,8.6525 32.8983,10.3108 32.2532,12.8157 Z"
       style="fill-rule: evenodd; fill: #d9251d; "
       id="path22" />
    <path
       d="  M130.9843,5.8101 C132.2227,6.5453 133.5953,6.8318 134.6194,7.4702 C136.0399,8.3557 135.7101,9.5712 136.2145,11.3907 C136.4475,12.2311 136.7031,12.4293 136.9159,13.1704 C137.2335,14.2764 136.9607,14.3515 137.7257,15.1390 C138.8196,16.2648 140.2995,16.0525 142.2578,16.0485 C145.3463,16.0421 162.1978,16.4957 163.5230,15.8301 C164.7071,14.1369 164.1432,10.9409 165.1764,8.9375 C165.8029,7.7229 169.1157,5.3514 169.5530,4.8100 C169.3362,4.2020 166.9552,2.0808 166.5693,2.0139 L158.4886,2.0139 L158.4661,14.6444 L141.4397,14.7264 L141.3752,2.0897 C139.6345,1.9040 132.4936,1.7754 131.0935,2.1921 L130.9843,5.8101 Z"
       style="fill-rule: evenodd; fill: #d9251d; "
       id="path23" />
    <path
       d="  M92.3095,41.0153 C92.5042,37.5196 91.9872,25.7359 92.7051,24.0242 C93.4593,22.2256 94.3879,21.7814 95.0647,20.5960 L77.2921,20.5656 C77.8300,21.4496 78.7386,22.2377 79.1286,23.1870 C79.8079,24.8403 78.9049,26.0516 79.5621,27.1682 C79.8654,27.6837 81.4955,28.5852 82.0236,29.1093 C83.0110,30.0892 82.8698,30.7440 83.1765,32.3849 C83.6777,35.0671 85.2776,35.7217 87.4134,36.9803 C89.5913,38.2637 90.7963,40.0743 92.3095,41.0153 Z"
       style="fill-rule: evenodd; fill: #d9251d; "
       id="path24" />
    <path
       d="  M91.4260,16.0482 L116.2257,16.0254 C116.3624,14.8568 116.4653,8.2078 116.0426,7.5341 C114.8522,5.6369 112.4500,7.7450 113.8016,2.0540 L109.2092,2.0979 L109.1930,14.7201 L91.7407,14.7244 L91.6823,2.0346 L85.7790,2.0114 C85.3990,3.3811 84.5231,4.7641 84.2772,5.9744 C83.8017,8.3143 85.2813,8.6932 86.1998,9.7657 C87.5014,11.2856 86.5665,12.6441 87.7163,14.0340 C88.3635,14.8164 90.0797,16.0482 91.4260,16.0482 Z"
       style="fill-rule: evenodd; fill: #d9251d; "
       id="path25" />
    <path
       d="  M5.1766,16.0483 L14.0934,16.0378 C14.6606,15.5284 14.6455,15.5193 15.1605,14.7245 C15.4673,14.2511 15.7986,13.6854 16.0641,13.1466 C16.4905,12.2814 17.0680,10.9455 17.4458,9.8385 C19.6534,3.3679 16.5606,4.5921 17.8538,2.1298 L5.1876,2.0066 L5.1766,16.0483 Z"
       style="fill-rule: evenodd; fill: #d9251d; "
       id="path26" />
    <path
       d="  M67.4493,41.6875 L90.4307,41.6871 C89.4591,40.9040 88.6345,39.6732 87.0988,38.6738 C81.2268,34.8525 82.9576,36.6923 81.3459,31.1478 C80.9071,29.6385 78.9050,29.2991 77.9722,27.6564 C72.5068,27.7074 73.7709,30.5616 72.7503,34.7942 C71.9624,38.0611 68.3146,37.3257 67.4493,41.6875 Z"
       style="fill-rule: evenodd; fill: #d9251d; "
       id="path27" />
    <path
       d="  M93.9794,41.4560 L97.5628,41.5645 C97.5907,39.4352 97.2364,27.5828 97.8865,26.1699 C99.2169,23.2784 102.9994,23.5968 104.3219,26.1522 C104.9814,27.4265 104.6780,29.4761 104.6778,31.0357 C104.6772,34.5171 104.6444,38.0153 104.6868,41.4946 L108.0905,41.5591 C108.1599,36.9484 108.0758,32.3265 108.1052,27.7221 C108.1637,18.5662 98.2621,19.7244 95.8183,22.1776 C94.4103,23.5910 93.9522,24.7586 93.9688,27.4430 C93.9976,32.1117 93.9296,36.7887 93.9794,41.4560 Z"
       style="fill-rule: evenodd; fill: #d9251d; "
       id="path28" />
    <path
       d="  M182.8406,16.0467 L195.7518,16.0432 L195.8269,2.0823 C187.2380,1.2781 188.3735,4.0043 184.9706,11.3429 C183.5537,14.3983 185.1509,12.5880 182.8406,16.0467 Z"
       style="fill-rule: evenodd; fill: #d9251d; "
       id="path29" />
    <path
       d="  M165.4570,16.0377 L179.5536,16.0482 C180.9735,16.0481 182.4127,12.4634 182.3778,12.2636 C179.9001,7.7215 173.6566,8.9518 169.8844,6.6934 C166.1087,8.9194 165.6047,11.8459 165.4570,16.0377 Z"
       style="fill-rule: evenodd; fill: #d9251d; "
       id="path30" />
    <path
       d="  M124.9291,214.3746 C125.6639,213.0054 128.0432,209.5219 128.1219,207.5520 L105.9264,207.6995 C106.6198,210.4946 110.1625,216.6080 113.5349,214.0706 C114.4613,213.3736 114.0841,212.9419 115.8715,212.5383 C116.9793,212.2881 118.1784,212.3216 119.3115,212.4563 C123.5186,212.9566 120.9025,214.7813 124.9291,214.3746 Z"
       style="fill-rule: evenodd; fill: #fefefe; "
       id="path31" />
    <path
       d="  M130.9983,207.6233 C131.6597,210.8289 135.5556,216.7504 138.8351,213.6756 C139.8757,212.7000 140.1511,212.2908 142.2929,212.2001 C148.5247,211.9365 147.3712,215.8321 149.9461,214.0167 C150.7499,213.4500 152.8544,208.9163 153.2442,207.3751 L130.9983,207.6233 Z"
       style="fill-rule: evenodd; fill: #fefefe; "
       id="path32" />
    <path
       d="  M57.7842,5.3621 C58.0474,6.3602 57.0352,5.2108 60.0298,6.3521 C62.4407,7.2709 64.6654,6.9801 66.9963,7.3495 C68.2297,7.5450 69.3091,7.9622 70.4612,8.0448 C71.7550,8.1374 72.5508,7.8539 73.8817,7.9951 C75.7879,8.1974 75.7806,8.0819 76.7929,7.0275 C78.0756,5.6916 79.2976,3.9182 80.1363,2.0465 L57.7979,2.0188 L57.7842,5.3621 Z"
       style="fill-rule: evenodd; fill: #d9251d; "
       id="path33" />
    <path
       d="  M118.0127,16.0169 L123.4514,16.0506 C124.6372,14.0568 125.8414,11.7628 127.1983,9.9129 C128.9622,7.5083 129.2985,5.8797 129.4564,2.1045 C123.1892,1.9556 125.1243,1.7920 124.0320,3.4340 C123.5601,4.1434 123.1665,4.1568 122.5782,4.7415 C121.5135,5.7997 121.5332,6.6088 119.5430,6.9156 C117.1653,7.2820 117.9769,7.9093 117.8901,10.6069 C117.8363,12.2805 117.7674,14.3829 118.0127,16.0169 Z"
       style="fill-rule: evenodd; fill: #d9251d; "
       id="path34" />
    <path
       d="  M28.4381,15.2118 C29.2196,14.2667 28.9451,14.2277 29.3018,13.1244 C29.7501,11.7378 29.7588,12.4047 30.8285,11.7115 C30.9251,6.9640 30.2006,7.5713 32.0307,5.9148 C32.5366,5.4569 32.4265,5.6527 32.7144,4.9430 C33.0916,4.0131 33.1714,3.0416 33.2994,2.0183 L19.1522,2.0253 C20.1125,4.2782 19.0781,4.1121 21.2705,5.3477 C22.8194,6.2206 23.3235,6.6764 24.1301,8.2796 C25.0451,10.0984 27.2785,14.2398 28.4381,15.2118 Z"
       style="fill-rule: evenodd; fill: #d9251d; "
       id="path35" />
    <path
       d="  M134.9321,188.9701 L145.6583,188.9922 L145.7056,185.0772 L145.7234,181.4870 L145.6166,180.4166 L134.9337,180.5349 L134.9321,188.9701 Z"
       style="fill-rule: evenodd; fill: #fefefe; "
       id="path36" />
    <path
       d="  M75.5425,15.9724 L87.4258,16.0432 C86.6761,15.5940 85.8216,14.4554 85.5556,13.2029 C84.9815,10.5000 85.5828,11.3370 83.7862,9.6820 C81.0932,7.2011 83.3542,4.6307 84.0307,2.0153 C81.8318,2.0126 82.3380,1.6186 80.3019,5.0150 C79.5658,6.2428 78.9426,7.1796 78.1019,8.0552 C76.8849,9.3226 76.6956,8.8358 76.0080,11.2138 C75.5985,12.6301 75.3035,14.3664 75.5425,15.9724 Z"
       style="fill-rule: evenodd; fill: #d9251d; "
       id="path37" />
    <path
       d="  M24.8438,143.1779 L43.9912,143.1918 L43.4908,138.5491 L24.9299,138.4643 L24.8438,143.1779 Z"
       style="fill-rule: evenodd; fill: #449284; "
       id="path38" />
    <path
       d="  M183.4213,10.5990 C183.9799,9.8813 184.9128,7.2342 185.3496,6.1803 C186.0669,4.4496 186.8323,3.4658 187.6423,2.0347 L169.2932,2.0444 C170.5475,3.4355 171.6490,3.0082 171.7701,5.2826 C171.8699,7.1556 174.4222,5.2965 180.0659,8.1671 C181.8435,9.0713 182.2678,9.7488 183.4213,10.5990 Z"
       style="fill-rule: evenodd; fill: #d9251d; "
       id="path39" />
    <path
       d="  M142.7233,71.3126 C141.8197,72.8896 140.1858,92.7951 140.2158,96.0107 L144.9827,95.9786 C143.7678,87.7275 143.5968,79.7156 142.7233,71.3126 Z"
       style="fill-rule: evenodd; fill: #449284; "
       id="path40" />
    <path
       d="  M154.1632,133.3156 L177.9171,133.4817 L177.9646,130.8748 L154.0339,130.8747 L154.1632,133.3156 Z"
       style="fill-rule: evenodd; fill: #449284; "
       id="path41" />
    <path
       d="  M79.5466,62.6672 C81.9132,61.1970 84.0643,59.5570 87.2808,58.3663 C90.8987,57.0270 94.0115,55.7973 91.9423,52.6116 C90.1401,49.8368 89.6949,50.0320 85.6158,54.4911 C83.9638,56.2970 81.6724,58.6815 78.7610,59.8212 L79.5466,62.6672 Z"
       style="fill-rule: evenodd; fill: #c2c1c1; "
       id="path42" />
    <path
       d="  M99.1921,28.2751 L99.1990,41.5157 L103.0480,41.5115 L103.0586,28.2751 C103.0586,25.0144 99.1921,24.5623 99.1921,28.2751 Z"
       style="fill-rule: evenodd; fill: #ffff00; "
       id="path43" />
    <path
       d="  M125.4495,16.0332 L136.1907,16.0481 C135.5259,14.3140 134.7992,12.7020 134.4477,10.6928 C134.1890,9.2141 134.2175,9.0050 133.0394,8.4980 C132.2347,8.1517 131.1068,7.6779 130.3790,7.5685 C129.0055,10.5471 126.2736,13.4883 125.4495,16.0332 Z"
       style="fill-rule: evenodd; fill: #d9251d; "
       id="path44" />
    <path
       d="  M121.7000,188.8776 C122.9771,189.7255 144.3834,197.8019 148.1823,199.3156 C150.6111,200.2834 149.8678,200.1133 152.0189,199.2466 C151.0056,198.0401 132.0893,191.2275 130.0198,190.4187 C128.0729,189.6577 124.5607,188.0506 122.7307,187.6913 L121.7000,188.8776 Z"
       style="fill-rule: evenodd; fill: #449284; "
       id="path45" />
    <path
       d="  M24.9993,132.1963 C26.4307,132.5667 42.1742,132.6671 43.5115,132.2951 L43.6523,129.4470 L25.0509,129.4350 L24.9993,132.1963 Z"
       style="fill-rule: evenodd; fill: #449284; "
       id="path46" />
    <path
       d="  M134.8326,197.4698 C138.4332,199.7085 137.7709,199.7667 141.3146,200.9245 C141.6663,201.0394 142.1905,201.2173 142.5095,201.3875 C143.6293,201.9852 142.9234,201.3058 143.4132,202.1930 C142.9675,202.9689 139.7327,204.2923 138.3107,206.6723 L141.9819,206.5909 C143.9403,203.9259 142.5655,202.7454 147.7210,200.3023 L126.7721,192.2680 L134.8326,197.4698 Z"
       style="fill-rule: evenodd; fill: #449284; "
       id="path47" />
    <path
       d="  M24.9954,136.8520 L43.4181,136.8502 L43.3855,134.1020 L25.0422,133.9486 L24.9954,136.8520 Z"
       style="fill-rule: evenodd; fill: #449284; "
       id="path48" />
    <path
       d="  M16.3392,16.0259 L26.7136,16.0456 C25.8976,14.3816 24.8179,12.8809 23.8076,11.0936 C22.5565,8.8805 22.4499,7.6997 20.1503,6.6423 C19.6938,7.3446 19.1382,10.1096 18.4870,11.6975 C17.7763,13.4308 16.9360,14.6443 16.3392,16.0259 Z"
       style="fill-rule: evenodd; fill: #d9251d; "
       id="path49" />
    <path
       d="  M154.1189,136.8203 L177.9411,136.8532 L177.9390,135.0860 L154.1298,134.9312 L154.1189,136.8203 Z"
       style="fill-rule: evenodd; fill: #449284; "
       id="path50" />
    <path
       d="  M132.1385,206.7442 C134.4272,206.9080 136.5358,206.7815 138.1220,205.5129 L141.9173,202.1930 C138.7495,199.4258 132.2092,202.4054 132.1385,206.7442 Z"
       style="fill-rule: evenodd; fill: #fefefe; "
       id="path51" />
    <path
       d="  M118.0829,206.7491 C123.6603,207.5610 124.7594,204.7021 127.3005,202.7009 L127.8932,202.1930 C123.5902,199.1585 118.6006,203.0756 118.0829,206.7491 Z"
       style="fill-rule: evenodd; fill: #fefefe; "
       id="path52" />
    <path
       d="  M107.0526,206.9443 C112.1978,207.0726 112.3671,206.3613 116.3478,202.7876 L116.6537,202.4832 C116.6969,202.4378 116.7642,202.3489 116.7986,202.3105 C116.8335,202.2716 116.8998,202.1957 116.9408,202.1314 C114.6361,201.5302 112.8319,200.7013 110.3952,202.0966 C108.9467,202.9261 107.4204,204.7043 107.0526,206.9443 Z"
       style="fill-rule: evenodd; fill: #fefefe; "
       id="path53" />
    <path
       d="  M143.0964,206.6506 C145.6806,206.7416 147.5360,206.6819 149.2892,205.3523 L153.0214,201.9361 C147.7268,199.8658 143.7860,202.3742 143.0964,206.6506 Z"
       style="fill-rule: evenodd; fill: #fefefe; "
       id="path54" />
    <path
       d="  M81.7072,98.7906 C85.9918,100.3675 93.3529,95.3723 94.0648,94.1345 C90.7144,93.4193 89.7038,93.3364 86.8758,94.9537 C86.0614,95.4194 82.3260,97.9305 81.7072,98.7906 Z"
       style="fill-rule: evenodd; fill: #fdf400; "
       id="path55" />
    <path
       d="  M108.2827,94.5295 C109.8343,96.3421 116.6879,100.3270 120.4123,98.9556 C119.9245,98.2282 116.3699,95.7823 115.3724,95.1702 C113.5228,94.0354 110.4596,93.0432 108.2827,94.5295 Z"
       style="fill-rule: evenodd; fill: #fdf400; "
       id="path56" />
    <path
       d="  M74.0167,106.9676 C75.5604,107.9024 78.5999,108.1082 80.6334,107.7796 C82.7955,107.4303 84.5464,106.1830 85.4691,104.7437 L84.2131,104.1770 C79.0031,102.8937 76.7122,105.8772 74.0167,106.9676 Z"
       style="fill-rule: evenodd; fill: #fdf400; "
       id="path57" />
    <path
       d="  M64.1827,145.5579 C66.2450,144.0656 70.0899,138.5644 67.4775,134.4165 C66.5425,135.1111 65.0951,136.9546 64.4853,138.5553 C63.6368,140.7820 64.2205,143.0921 64.1827,145.5579 Z"
       style="fill-rule: evenodd; fill: #fdf400; "
       id="path58" />
    <path
       d="  M73.9351,161.3512 L74.6745,161.4388 C74.8680,160.2074 77.6009,153.1610 73.1926,150.5164 C70.0542,154.8927 73.5282,159.8246 73.9351,161.3512 Z"
       style="fill-rule: evenodd; fill: #fdf400; "
       id="path59" />
    <path
       d="  M62.6660,135.4498 C66.9000,133.8750 69.4159,130.5523 69.2646,125.9831 C67.6094,126.3923 65.5660,128.1780 64.7023,129.3834 C63.7258,130.7463 63.0980,133.4943 62.6660,135.4498 Z"
       style="fill-rule: evenodd; fill: #fdf400; "
       id="path60" />
    <path
       d="  M67.9231,153.8897 C70.3749,151.6100 71.8405,145.4096 69.0487,142.5297 C68.8519,142.7043 68.8593,142.6759 68.6248,142.9652 L67.6149,144.7215 C65.9766,148.4568 67.0868,150.1989 67.9231,153.8897 Z"
       style="fill-rule: evenodd; fill: #fdf400; "
       id="path61" />
    <path
       d="  M151.5079,155.6742 C152.9294,155.9848 152.4226,155.3089 154.3936,155.2720 L161.6159,155.2724 C164.3831,155.3128 162.6598,156.1141 164.4720,155.6539 L164.4612,153.2450 L151.5595,153.1242 L151.5079,155.6742 Z"
       style="fill-rule: evenodd; fill: #449284; "
       id="path62" />
    <path
       d="  M82.8432,168.4767 C83.3338,163.3505 81.6119,159.2403 77.9064,157.9669 C77.5805,164.3811 79.9737,165.5731 82.8432,168.4767 Z"
       style="fill-rule: evenodd; fill: #fdf400; "
       id="path63" />
    <path
       d="  M117.3618,104.3878 C116.8801,104.8892 116.9859,104.5748 117.0028,105.2902 C118.1051,107.9221 124.3728,109.0107 127.6945,107.2283 L126.6741,106.5117 C126.2879,106.2679 126.0616,106.1341 125.6549,105.8781 C121.6543,103.3601 121.3474,104.2029 117.3618,104.3878 Z"
       style="fill-rule: evenodd; fill: #fdf400; "
       id="path64" />
    <path
       d="  M72.2826,119.3574 L72.6281,117.8789 L71.8205,118.0216 C67.0347,118.4838 65.6028,121.8061 63.6014,124.8315 C67.2731,124.6985 71.6843,122.2546 72.2826,119.3574 Z"
       style="fill-rule: evenodd; fill: #fdf400; "
       id="path65" />
    <path
       d="  M68.2879,114.2815 C73.3231,114.8774 77.6117,113.9297 79.0887,110.2583 C76.6710,110.0284 74.4338,109.8289 72.4615,110.8973 C71.5241,111.4051 68.5756,113.5743 68.2879,114.2815 Z"
       style="fill-rule: evenodd; fill: #fdf400; "
       id="path66" />
    <path
       d="  M127.6163,161.9112 C128.2190,161.0371 129.5443,158.1903 129.7963,156.8807 C130.1820,154.8765 129.8105,152.1445 128.7214,150.6848 C125.8561,152.9013 125.3937,158.4253 127.6163,161.9112 Z"
       style="fill-rule: evenodd; fill: #fdf400; "
       id="path67" />
    <path
       d="  M138.0620,125.0649 C137.5557,124.0254 135.6390,121.0979 134.8923,120.3811 C133.7208,119.2566 131.3425,118.0670 129.0777,118.0374 C130.0390,122.4437 133.3036,124.4540 138.0620,125.0649 Z"
       style="fill-rule: evenodd; fill: #fdf400; "
       id="path68" />
    <path
       d="  M133.7177,154.1645 C135.4978,151.1461 135.5754,146.0800 132.8653,142.7445 L131.9757,143.8885 C129.9150,148.2772 132.5534,151.4369 133.7177,154.1645 Z"
       style="fill-rule: evenodd; fill: #fdf400; "
       id="path69" />
    <path
       d="  M139.0930,135.5913 C138.3621,133.6614 138.1742,131.4220 137.1387,129.7341 C136.2922,128.3542 134.4678,126.7874 132.5672,126.1074 C132.4985,128.8730 132.9472,130.7402 134.5004,132.3722 C135.3647,133.2802 137.5935,135.2351 139.0930,135.5913 Z"
       style="fill-rule: evenodd; fill: #fdf400; "
       id="path70" />
    <path
       d="  M137.5412,145.6267 C137.5141,143.2049 138.0871,140.9691 137.2429,138.7318 C136.6741,137.2244 135.2260,135.2100 134.2538,134.6014 C132.3148,139.8123 135.4929,144.6241 137.5412,145.6267 Z"
       style="fill-rule: evenodd; fill: #fdf400; "
       id="path71" />
    <path
       d="  M122.9619,110.5356 C124.6964,114.2520 128.2525,114.9831 133.5756,114.4725 C133.2126,113.9633 133.5272,114.3592 133.0959,113.9499 L131.5776,112.6547 C129.1416,110.6049 126.5241,109.4991 122.9619,110.5356 Z"
       style="fill-rule: evenodd; fill: #fdf400; "
       id="path72" />
    <path
       d="  M119.2701,168.5555 L122.9054,164.6356 C124.0711,162.7069 124.1962,160.7703 124.1011,158.2170 C120.3647,159.2099 118.8411,163.7806 119.2701,168.5555 Z"
       style="fill-rule: evenodd; fill: #fdf400; "
       id="path73" />
    <path
       d="  M57.7797,133.1934 C57.0862,130.2430 56.5691,125.1272 54.3038,122.4939 L53.8543,122.0415 C51.2050,126.5363 55.0893,132.0042 57.7797,133.1934 Z"
       style="fill-rule: evenodd; fill: #fdf400; "
       id="path74" />
    <path
       d="  M71.4550,165.3515 C67.9804,163.4613 65.3190,160.2903 60.5526,160.0200 C62.1050,164.3973 66.6658,166.2908 71.4550,165.3515 Z"
       style="fill-rule: evenodd; fill: #fdf300; "
       id="path75" />
    <path
       d="  M59.5456,145.7799 C56.9915,141.8517 56.0446,138.3433 52.1763,136.1474 C52.2361,141.2884 55.0603,145.0572 59.5456,145.7799 Z"
       style="fill-rule: evenodd; fill: #fdf400; "
       id="path76" />
    <path
       d="  M64.3165,156.5585 C63.8210,155.8570 62.7788,155.3209 62.1546,154.6992 C60.1028,152.6554 57.9493,150.1961 54.4787,149.5733 C55.4096,153.9092 59.0538,156.6569 64.3165,156.5585 Z"
       style="fill-rule: evenodd; fill: #fdf300; "
       id="path77" />
    <path
       d="  M70.4671,170.5780 C70.7761,171.5535 70.3522,170.9952 71.2954,171.7819 C75.1275,174.9783 78.0487,174.5543 82.2804,172.8582 C81.4858,172.5258 80.3961,172.4022 79.5555,172.1096 C75.8836,170.8319 75.2724,170.2582 70.4671,170.5780 Z"
       style="fill-rule: evenodd; fill: #fdf300; "
       id="path78" />
    <path
       d="  M142.2207,145.9092 C146.5418,145.0520 149.2854,141.5286 149.3039,136.4362 C147.6258,137.1173 146.1427,138.9410 145.1766,140.5125 L142.2207,145.9092 Z"
       style="fill-rule: evenodd; fill: #fdf400; "
       id="path79" />
    <path
       d="  M137.5047,156.6969 C142.7032,156.9942 146.0953,153.9263 147.0509,149.7519 C142.5436,150.7545 140.7539,153.9158 138.7372,155.6007 L137.5047,156.6969 Z"
       style="fill-rule: evenodd; fill: #fdf400; "
       id="path80" />
    <path
       d="  M143.8806,133.2997 C145.4454,132.6625 147.0467,130.6439 147.7458,128.9992 C148.7037,126.7456 148.3599,124.3574 147.8103,122.0878 C145.1378,124.2351 144.8180,129.3626 143.8806,133.2997 Z"
       style="fill-rule: evenodd; fill: #fdf300; "
       id="path81" />
    <path
       d="  M130.7670,165.6432 C135.2352,166.0627 139.4825,164.7613 141.1004,160.2151 C136.8265,160.3980 134.4931,163.0381 132.0275,164.6126 C131.8671,164.7150 131.6248,164.8564 131.4976,164.9550 L130.7670,165.6432 Z"
       style="fill-rule: evenodd; fill: #fdf400; "
       id="path82" />
    <path
       d="  M119.9046,172.9669 C123.7844,175.9233 129.7224,173.6603 131.5153,170.7842 C125.5357,170.2436 124.7182,171.9723 119.9046,172.9669 Z"
       style="fill-rule: evenodd; fill: #fdf400; "
       id="path83" />
    <path
       d="  M72.8080,101.3235 L76.3550,96.8636 C77.6209,95.1658 78.2668,93.7173 78.4646,91.1198 C74.6441,92.3916 72.2836,96.4738 72.8080,101.3235 Z"
       style="fill-rule: evenodd; fill: #fdf300; "
       id="path84" />
    <path
       d="  M129.0188,101.5160 C129.4827,98.8604 129.2206,96.9963 127.9305,95.0400 C127.1667,93.8818 124.9755,91.7158 123.5689,91.2544 C123.7722,96.4172 126.6765,97.8385 128.0717,100.1433 L129.0188,101.5160 Z"
       style="fill-rule: evenodd; fill: #fdf300; "
       id="path85" />
    <path
       d="  M60.2998,119.7487 C60.0260,116.0756 61.1669,112.0531 59.1033,109.0105 C57.7937,109.9852 57.1267,112.6535 57.3513,114.6942 C57.5129,116.1623 58.2708,117.6619 59.1378,118.7722 C59.8301,119.6587 59.3532,119.2919 60.2998,119.7487 Z"
       style="fill-rule: evenodd; fill: #fdf300; "
       id="path86" />
    <path
       d="  M141.3806,119.9469 C142.6179,119.1479 143.8711,117.3116 144.1990,115.2111 C144.5280,113.1037 143.8082,110.1910 142.5345,109.2282 C140.5304,112.1597 141.5811,116.2898 141.3806,119.9469 Z"
       style="fill-rule: evenodd; fill: #fdf400; "
       id="path87" />
    <path
       d="  M66.1171,108.7825 C66.3580,108.1044 66.4591,107.1857 66.6729,106.5429 C67.7265,103.3743 68.4646,102.9147 68.0190,98.3026 C67.0351,98.3421 65.2970,100.9934 64.8723,102.4856 C64.1812,104.9144 65.0112,107.1447 66.1171,108.7825 Z"
       style="fill-rule: evenodd; fill: #fdf300; "
       id="path88" />
    <path
       d="  M115.0141,4.9936 C116.7570,6.0373 117.7051,5.9619 119.7578,5.2255 C120.0650,5.1153 122.7790,2.3036 122.8662,2.0942 L115.7371,2.0177 C115.1101,2.9342 114.9131,3.7994 115.0141,4.9936 Z"
       style="fill-rule: evenodd; fill: #d9251d; "
       id="path89" />
    <path
       d="  M135.6225,108.8433 C136.8212,107.6081 137.4364,105.0454 136.9305,102.8906 C136.5422,101.2369 134.9406,98.8022 133.8175,98.4496 C133.2253,103.6778 134.7383,104.5337 135.6225,108.8433 Z"
       style="fill-rule: evenodd; fill: #fdf400; "
       id="path90" />
    <path
       d="  M128.7961,195.2907 C129.2634,195.8844 129.6830,196.6521 130.0189,197.5760 L132.3318,197.2766 L121.8735,190.6789 C121.5660,196.9768 124.1553,194.7501 128.7961,195.2907 Z"
       style="fill-rule: evenodd; fill: #449284; "
       id="path91" />
    <path
       d="  M61.1271,137.3852 C61.2479,139.7996 61.9461,144.6757 63.2072,146.2027 C63.6025,143.6638 62.8580,141.5057 63.4464,139.1886 C64.0523,136.8027 65.1020,136.1372 65.9739,134.5842 C64.4371,135.4419 62.7512,136.4839 61.1271,137.3852 Z"
       style="fill-rule: evenodd; fill: #fcfbfb; "
       id="path92" />
    <path
       d="  M152.3877,179.7845 C153.1669,179.4853 156.8770,176.8557 157.4504,176.2433 C156.8668,175.4588 153.5639,173.4420 152.7737,173.1946 L152.3877,179.7845 Z"
       style="fill-rule: evenodd; fill: #449284; "
       id="path93" />
    <path
       d="  M138.3563,145.9311 L139.0434,145.6846 C139.4002,143.1201 140.5508,140.4577 140.4805,137.5949 L135.9221,134.8306 C139.1422,140.1408 138.2783,138.7595 138.3563,145.9311 Z"
       style="fill-rule: evenodd; fill: #fcfbfb; "
       id="path94" />
    <path
       d="  M154.0120,171.3897 L162.6046,171.5132 C161.8582,170.6231 159.0005,168.3223 158.0446,167.7875 C156.7040,168.7386 155.2462,170.3138 154.0120,171.3897 Z"
       style="fill-rule: evenodd; fill: #449284; "
       id="path95" />
    <path
       d="  M159.0601,167.2300 C160.4928,168.1366 162.0705,169.8380 163.6579,170.5821 L163.0486,163.6434 C162.1330,164.0864 159.4977,166.2829 159.0601,167.2300 Z"
       style="fill-rule: evenodd; fill: #449284; "
       id="path96" />
    <path
       d="  M159.7600,176.2091 C160.7804,176.9688 163.2193,178.6386 164.4747,179.1068 L163.9595,173.2986 C163.1638,173.4498 160.3146,175.5162 159.7600,176.2091 Z"
       style="fill-rule: evenodd; fill: #449284; "
       id="path97" />
    <path
       d="  M154.2686,179.9602 L163.0790,179.8823 L162.1439,179.0030 C156.5144,175.0919 158.5826,177.8486 154.2686,179.9602 Z"
       style="fill-rule: evenodd; fill: #449284; "
       id="path98" />
    <path
       d="  M152.9238,170.5615 C153.9318,170.0456 156.2849,168.0093 157.0631,167.1333 C156.6047,166.3775 154.2762,164.5462 153.3125,164.0661 L152.9238,170.5615 Z"
       style="fill-rule: evenodd; fill: #449284; "
       id="path99" />
    <path
       d="  M137.3577,68.2614 C139.6802,69.1297 139.5464,68.3768 141.4511,69.9687 L141.5661,65.9587 C140.6466,66.0638 140.5057,66.7682 139.8512,67.4325 C137.2343,67.2612 138.0548,65.1252 136.2598,64.5620 C134.9645,66.1382 135.6654,67.6286 137.3577,68.2614 Z"
       style="fill-rule: evenodd; fill: #fdf300; "
       id="path100" />
    <path
       d="  M67.0074,143.7706 C66.7213,144.0318 63.9678,147.0536 63.6759,147.5331 C63.5172,148.2251 65.8700,153.0394 66.3770,153.5811 C66.9703,154.2151 66.0641,153.5010 66.9967,154.0820 C66.8321,152.0403 66.0265,150.6087 65.9625,148.6418 C65.8842,146.2381 66.8300,145.3434 67.0074,143.7706 Z"
       style="fill-rule: evenodd; fill: #fcfbfb; "
       id="path101" />
    <path
       d="  M134.7704,154.4915 C135.9471,153.5369 137.7844,149.1491 138.1024,147.8091 C137.1325,146.2923 135.1471,144.8159 134.3456,143.2200 C137.3558,150.7331 135.0039,149.2499 134.7704,154.4915 Z"
       style="fill-rule: evenodd; fill: #fafaf9; "
       id="path102" />
    <path
       d="  M159.6682,183.4375 C160.6846,184.2200 163.7067,185.5904 165.1309,185.8508 L164.7367,181.3641 C163.7490,181.3811 160.7469,182.9793 159.6682,183.4375 Z"
       style="fill-rule: evenodd; fill: #449284; "
       id="path103" />
    <path
       d="  M158.5577,175.4036 C159.4935,175.0507 161.7901,173.3351 162.4300,172.6522 L154.4163,172.5160 C155.2403,173.6654 157.3024,174.7235 158.5577,175.4036 Z"
       style="fill-rule: evenodd; fill: #449284; "
       id="path104" />
    <path
       d="  M87.3056,68.2010 C90.1064,67.3290 89.9084,65.9026 90.0026,62.3757 L86.9470,63.9663 L87.3056,68.2010 Z"
       style="fill-rule: evenodd; fill: #c2c1c1; "
       id="path105" />
    <path
       d="  M151.9011,187.5618 C153.2002,188.2349 162.9257,187.8108 165.2754,187.8108 C165.0917,186.9003 165.9648,187.0501 162.4267,187.0784 L153.2799,187.0522 C151.3264,187.1033 152.2997,187.2789 151.9011,187.5618 Z"
       style="fill-rule: evenodd; fill: #449284; "
       id="path106" />
    <path
       d="  M158.0051,166.2069 C158.6007,165.9308 160.7715,164.1680 161.2387,163.3991 L154.5644,163.3981 L158.0051,166.2069 Z"
       style="fill-rule: evenodd; fill: #449284; "
       id="path107" />
    <path
       d="  M152.0176,185.5340 C153.2248,185.2588 153.4323,185.0917 154.4842,184.5946 L156.1783,183.7840 C156.5175,183.5667 156.4727,183.5843 156.6727,183.3990 L152.3199,181.5563 L152.0176,185.5340 Z"
       style="fill-rule: evenodd; fill: #449284; "
       id="path108" />
    <path
       d="  M144.6906,70.7159 C146.0556,70.4958 145.9729,69.9642 146.9795,69.1982 L146.5543,67.7517 C144.9684,66.9845 145.8389,68.1598 144.5762,66.4512 C143.8351,69.0294 143.6138,67.7822 143.5435,69.9914 L143.7074,70.9829 C144.7967,71.0387 144.1708,71.1282 144.6906,70.7159 Z"
       style="fill-rule: evenodd; fill: #fdf300; "
       id="path109" />
    <path
       d="  M155.0133,162.3197 L156.0713,162.3310 L161.0527,162.3291 L162.0727,162.3114 C161.2783,161.5763 159.7141,160.6949 158.5577,160.1394 C157.3445,160.6019 155.7151,161.5201 155.0133,162.3197 Z"
       style="fill-rule: evenodd; fill: #449284; "
       id="path110" />
    <path
       d="  M153.4596,161.6602 C154.3114,161.3617 156.5244,160.1979 157.1883,159.4036 C156.5288,158.7977 154.5628,157.6175 153.6978,157.4822 L153.4596,161.6602 Z"
       style="fill-rule: evenodd; fill: #449284; "
       id="path111" />
    <path
       d="  M154.5196,181.1056 C155.2151,181.7364 157.4437,182.8575 158.2403,182.8110 C158.9887,182.7673 161.5690,181.4081 162.1032,181.0090 L154.5196,181.1056 Z"
       style="fill-rule: evenodd; fill: #449284; "
       id="path112" />
    <path
       d="  M154.5846,185.9715 L161.9146,186.0119 C161.2299,185.2261 158.7615,184.2891 158.2643,184.2746 L155.1066,185.5140 C154.7280,185.7757 154.8239,185.7215 154.5846,185.9715 Z"
       style="fill-rule: evenodd; fill: #449284; "
       id="path113" />
    <path
       d="  M146.8545,188.8806 L150.8048,188.8786 L150.7390,187.0859 L146.8383,187.1984 L146.8545,188.8806 Z"
       style="fill-rule: evenodd; fill: #449284; "
       id="path114" />
    <path
       d="  M158.5149,158.8108 L160.6055,157.5940 C161.2217,157.1828 161.0218,157.3239 161.3705,156.8933 L155.5706,156.8921 L158.5149,158.8108 Z"
       style="fill-rule: evenodd; fill: #449284; "
       id="path115" />
    <path
       d="  M159.7810,159.3053 C160.3782,160.0674 161.8180,160.8638 162.7707,161.1942 L162.4999,157.8425 L159.7810,159.3053 Z"
       style="fill-rule: evenodd; fill: #449284; "
       id="path116" />
    <path
       d="  M166.5346,188.9090 L169.0172,188.8856 L168.9355,187.1080 L166.4608,187.1006 L166.5346,188.9090 Z"
       style="fill-rule: evenodd; fill: #449284; "
       id="path117" />
    <path
       d="  M67.0074,143.7706 C68.2218,142.8190 68.0720,141.5560 69.2414,141.4584 C69.1958,141.3786 69.0165,141.0327 68.9785,140.9550 C68.9345,140.8650 68.8839,140.7581 68.8397,140.6668 C68.7931,140.5708 68.7468,140.4626 68.6973,140.3619 C67.9172,141.3827 68.2960,141.0749 67.9307,142.0051 C67.5863,142.8821 67.3748,142.7602 67.0074,143.7706 Z"
       style="fill-rule: evenodd; fill: #8d8b8a; "
       id="path118" />
    <path
       d="  M132.4777,141.4101 L133.7903,142.3143 C133.3349,140.5349 133.3395,141.1010 133.0947,140.8146 C133.0251,140.8748 132.8385,141.0551 132.7955,141.0968 C132.7612,141.1300 132.6727,141.2173 132.6384,141.2508 C132.6029,141.2852 132.5330,141.3588 132.4777,141.4101 Z"
       style="fill-rule: evenodd; fill: #959392; "
       id="path119" />
    <path
       d="  M72.2826,119.3574 C72.6110,118.9954 72.3595,119.6935 72.7606,118.6650 C72.8797,118.3595 72.9195,118.0022 72.9886,117.7010 C71.9411,117.7244 72.5894,117.4872 71.8205,118.0216 L72.6281,117.8789 L72.2826,119.3574 Z"
       style="fill-rule: evenodd; fill: #948c0b; "
       id="path120" />
    <path
       d="  M80.0636,110.3345 C80.4925,110.0156 80.3648,110.8567 80.4228,109.7128 L79.4048,109.4552 C79.9919,109.8349 79.8682,109.6500 80.0636,110.3345 Z"
       style="fill-rule: evenodd; fill: #9d9b9a; "
       id="path121" />
    <path
       d="  M117.0028,105.2902 C116.9859,104.5748 116.8801,104.8892 117.3618,104.3878 L116.4834,104.6933 L117.0028,105.2902 Z"
       style="fill-rule: evenodd; fill: #8b840b; "
       id="path122" />
    <path
       d="  M74.6745,161.4388 L73.9351,161.3512 L74.1908,161.9836 L74.6745,161.4388 Z"
       style="fill-rule: evenodd; fill: #aca507; "
       id="path123" />
    <path
       d="  M138.3563,145.9311 L138.5591,146.4273 L139.0434,145.6846 L138.3563,145.9311 Z"
       style="fill-rule: evenodd; fill: #9d9b9a; "
       id="path124" />
    <path
       d="  M34.8176,236.3832 L41.7186,228.9921 L43.2154,230.3896 L40.1584,233.6636 L46.2313,233.2056 L48.2374,235.0787 L42.7611,235.3531 L41.4809,242.6047 L39.5505,240.8023 L40.7571,235.4334 L38.4010,235.5458 L36.3143,237.7807 L34.8176,236.3832 Z Z M49.5812,248.7589 L47.8365,247.4097 L48.5539,245.0544 L45.3456,242.5734 L43.2726,243.8805 L41.5596,242.5558 L50.8512,236.9583 L52.5624,238.2815 L49.5812,248.7589 Z Z M49.0741,243.2965 L50.2520,239.4763 L46.8825,241.6018 L49.0741,243.2965 Z Z M55.5507,240.4802 L59.0691,242.4737 C59.7674,242.8695 60.2693,243.1917 60.5788,243.4428 C60.8892,243.6972 61.1259,243.9909 61.2930,244.3263 C61.4588,244.6639 61.5460,245.0352 61.5533,245.4425 C61.5606,245.8497 61.4558,246.2448 61.2411,246.6236 C61.0090,247.0332 60.6838,247.3494 60.2689,247.5661 C59.8527,247.7848 59.4066,247.8703 58.9302,247.8276 C59.3755,248.2882 59.6341,248.7865 59.7094,249.3269 C59.7826,249.8662 59.6753,250.3898 59.3864,250.8996 C59.1590,251.3011 58.8463,251.6380 58.4453,251.9112 C58.0442,252.1845 57.6185,252.3437 57.1661,252.3877 C56.7170,252.4307 56.2408,252.3449 55.7376,252.1301 C55.4253,251.9937 54.6990,251.6092 53.5618,250.9757 L50.5657,249.2780 L55.5507,240.4802 Z Z M56.5039,242.9520 L55.3551,244.9794 L56.5184,245.6385 C57.2085,246.0295 57.6444,246.2631 57.8239,246.3376 C58.1468,246.4746 58.4455,246.5059 58.7182,246.4305 C58.9909,246.3551 59.2057,246.1765 59.3659,245.8938 C59.5202,245.6214 59.5686,245.3594 59.5154,245.1047 C59.4622,244.8500 59.2970,244.6212 59.0218,244.4192 C58.8573,244.2990 58.3573,244.0021 57.5237,243.5298 L56.5039,242.9520 Z Z M54.5266,246.4416 L53.1899,248.8008 L54.8364,249.7338 C55.4753,250.0958 55.8932,250.3083 56.0851,250.3710 C56.3771,250.4715 56.6583,250.4765 56.9297,250.3843 C57.2024,250.2898 57.4267,250.0896 57.6042,249.7762 C57.7551,249.5100 57.8182,249.2509 57.7935,248.9934 C57.7710,248.7372 57.6612,248.4964 57.4671,248.2755 C57.2731,248.0547 56.7711,247.7134 55.9623,247.2551 L54.5266,246.4416 Z Z M63.5578,245.0360 L65.4298,245.8662 L63.2084,250.8754 C62.8553,251.6715 62.6509,252.1963 62.5921,252.4508 C62.5038,252.8648 62.5555,253.2534 62.7513,253.6132 C62.9482,253.9761 63.3043,254.2704 63.8208,254.4995 C64.3436,254.7313 64.7872,254.7993 65.1504,254.7003 C65.5137,254.6013 65.7902,254.4073 65.9843,254.1148 C66.1784,253.8224 66.4382,253.3119 66.7627,252.5803 L69.0318,247.4635 L70.9038,248.2937 L68.7482,253.1544 C68.2558,254.2647 67.8580,255.0281 67.5537,255.4416 C67.2493,255.8551 66.8925,256.1603 66.4811,256.3564 C66.0718,256.5534 65.5997,256.6428 65.0648,256.6296 C64.5278,256.6153 63.8962,256.4486 63.1668,256.1251 C62.2867,255.7349 61.6646,255.3379 61.3011,254.9322 C60.9378,254.5264 60.6958,254.1024 60.5762,253.6579 C60.4566,253.2135 60.4352,252.7972 60.5107,252.4006 C60.6228,251.8169 60.9098,251.0070 61.3688,249.9720 L63.5578,245.0360 Z Z M68.8376,258.2848 L72.0421,248.6940 L75.1476,249.7316 C76.3241,250.1247 77.0742,250.4274 77.3993,250.6427 C77.9000,250.9714 78.2555,251.4375 78.4650,252.0436 C78.6745,252.6496 78.6516,253.3344 78.3965,254.0979 C78.1996,254.6874 77.9275,255.1449 77.5812,255.4759 C77.2327,255.8061 76.8573,256.0307 76.4523,256.1510 C76.0480,256.2691 75.6624,256.3089 75.2985,256.2692 C74.8057,256.2063 74.1226,256.0302 73.2474,255.7379 L71.9883,255.3171 L70.7799,258.9338 L68.8376,258.2848 Z Z M73.4429,250.9638 L72.5299,253.6963 L73.5858,254.0491 C74.3471,254.3035 74.8710,254.4214 75.1614,254.4068 C75.4517,254.3922 75.7048,254.3029 75.9223,254.1349 C76.1390,253.9690 76.2955,253.7459 76.3909,253.4601 C76.5080,253.1096 76.5016,252.7873 76.3745,252.4917 C76.2452,252.1954 76.0362,251.9667 75.7408,251.8035 C75.5250,251.6843 75.0704,251.5076 74.3738,251.2748 L73.4429,250.9638 Z Z M85.6925,262.8643 L83.5411,262.3786 L83.1963,259.9407 L79.2402,259.0476 L77.9135,261.1080 L75.8012,260.6311 L81.8579,251.6321 L83.9680,252.1084 L85.6925,262.8643 Z Z M82.9251,258.1276 L82.3787,254.1675 L80.2227,257.5175 L82.9251,258.1276 Z Z M88.0061,263.0960 L89.0575,254.7589 L86.0870,254.3843 L86.3008,252.6889 L94.2596,253.6926 L94.0458,255.3881 L91.0893,255.0152 L90.0378,263.3522 L88.0061,263.0960 Z Z M94.3148,263.8974 L94.5474,253.7880 L102.0306,253.9602 L101.9913,255.6687 L96.5554,255.5436 L96.5038,257.7885 L101.5584,257.9048 L101.5191,259.6132 L96.4645,259.4969 L96.4014,262.2360 L102.0350,262.3657 L101.9956,264.0741 L94.3148,263.8974 Z Z M103.7387,264.1428 L102.9866,254.0589 L104.9632,253.9115 L109.6171,260.3599 L109.1132,253.6020 L111.0004,253.4613 L111.7524,263.5452 L109.7125,263.6973 L105.1316,257.3734 L105.6259,264.0021 L103.7387,264.1428 Z Z M117.8267,262.7710 L115.5669,252.9148 L117.5629,252.4572 L118.5639,256.8231 L121.5847,251.5350 L124.2599,250.9216 L121.4209,255.6127 L126.7125,260.7336 L124.1383,261.3239 L120.3655,257.3181 L119.1394,259.3331 L119.8227,262.3133 L117.8267,262.7710 Z Z M136.3754,257.5685 L134.2804,258.2580 L132.7312,256.3444 L128.8789,257.6124 L128.8004,260.0618 L126.7435,260.7389 L127.3113,249.9063 L129.3660,249.2300 L136.3754,257.5685 Z Z M131.5664,254.9288 L129.0615,251.8132 L128.9348,255.7949 L131.5664,254.9288 Z Z M137.4194,257.2638 L132.8644,248.2358 L135.6026,246.8542 L140.3275,252.1951 L138.8200,245.2309 L141.5645,243.8462 L146.1195,252.8741 L144.4299,253.7266 L140.8377,246.6226 L142.6437,254.6278 L140.8869,255.5142 L135.5294,249.3009 L139.1090,256.4113 L137.4194,257.2638 Z Z M147.9468,251.9396 L142.5544,243.3854 L145.3242,241.6394 C146.3736,240.9779 147.0829,240.5892 147.4555,240.4739 C148.0269,240.2946 148.6128,240.3148 149.2145,240.5365 C149.8162,240.7582 150.3316,241.2096 150.7609,241.8906 C151.0923,242.4163 151.2741,242.9166 151.3109,243.3942 C151.3457,243.8732 151.2817,244.3058 151.1183,244.6954 C150.9536,245.0830 150.7403,245.4067 150.4790,245.6632 C150.1183,246.0047 149.5494,246.4218 148.7688,246.9139 L147.6458,247.6218 L149.6792,250.8475 L147.9468,251.9396 Z Z M145.1981,243.7390 L146.7344,246.1762 L147.6763,245.5824 C148.3553,245.1544 148.7784,244.8237 148.9509,244.5898 C149.1235,244.3558 149.2148,244.1035 149.2224,243.8287 C149.2314,243.5559 149.1578,243.2935 148.9971,243.0386 C148.8001,242.7260 148.5465,242.5269 148.2373,242.4380 C147.9261,242.3504 147.6168,242.3673 147.3033,242.4925 C147.0744,242.5840 146.6497,242.8239 146.0284,243.2155 L145.1981,243.7390 Z Z M162.2575,241.9241 L160.5111,243.2711 L158.4136,241.9816 L155.2023,244.4585 L155.9428,246.7946 L154.2281,248.1171 L151.1612,237.7122 L152.8741,236.3911 L162.2575,241.9241 Z Z M156.8444,241.0339 L153.4460,238.9286 L154.6507,242.7258 L156.8444,241.0339 Z Z M163.0665,241.1874 L156.1498,233.8111 L159.2868,230.8695 C160.0750,230.1304 160.7112,229.6597 161.1923,229.4570 C161.6752,229.2527 162.1807,229.2207 162.7126,229.3577 C163.2460,229.4964 163.7165,229.7813 164.1254,230.2174 C164.6454,230.7720 164.9123,231.3801 164.9259,232.0450 C164.9395,232.7098 164.6678,233.3905 164.1107,234.0904 C164.6073,233.9765 165.0649,233.9345 165.4837,233.9647 C165.9040,233.9931 166.5607,234.1292 167.4522,234.3710 L169.7012,234.9662 L167.9206,236.6359 L165.3424,236.0267 C164.4233,235.8139 163.8225,235.6997 163.5399,235.6839 C163.2606,235.6683 163.0147,235.7053 162.8052,235.7986 C162.5940,235.8934 162.3175,236.1009 161.9741,236.4230 L161.6719,236.7063 L164.5604,239.7867 L163.0665,241.1874 Z Z M160.5706,235.5318 L161.6730,234.4982 C162.3873,233.8284 162.8030,233.3805 162.9252,233.1530 C163.0458,232.9270 163.0883,232.6902 163.0495,232.4492 C163.0123,232.2066 162.8882,231.9744 162.6805,231.7529 C162.4471,231.5040 162.1933,231.3676 161.9162,231.3370 C161.6407,231.3082 161.3634,231.3875 161.0860,231.5734 C160.9480,231.6705 160.5776,232.0017 159.9750,232.5668 L158.8125,233.6569 L160.5706,235.5318 Z"
       style="fill-rule: evenodd; fill: #000000; "
       id="path125" />
  </g>
</svg>
